<svg width="96" height="96" viewBox="0 0 96 96" fill="none" xmlns="http://www.w3.org/2000/svg">
<rect width="96" height="96" fill="white"/>
<path d="M69.698 87.8595C77.6388 83.458 74.2578 62.1751 62.1463 40.3243C50.0332 18.472 33.776 4.32682 25.8352 8.72833C17.8944 13.1298 21.2754 34.4127 33.387 56.265C45.5001 78.1158 61.7573 92.261 69.698 87.8595Z" stroke="#23103A" stroke-width="8.60781"/>
<path d="M47.7677 75.2414L51.2922 77.9894L54.0594 74.4841L58.137 76.3063L59.9813 72.236L64.3769 73.0243L65.1933 68.6332L69.6496 68.3507L69.3952 63.8915L73.6562 62.5545L72.3428 58.2846L76.1587 55.9626L73.8544 52.1349L77.0002 48.9654L73.8544 45.7944L76.1587 41.9667L72.3428 39.6432L73.6562 35.3748L69.3937 34.0378L69.6466 29.5771L65.1904 29.2961L64.374 24.9035L59.9784 25.6933L58.1355 21.6245L54.0594 23.4466L51.2892 19.9414L47.7677 22.6894L44.2418 19.9414L41.4745 23.4481L37.3954 21.6245L35.5526 25.6947L31.1555 24.9064L30.3421 29.2976L25.8844 29.5801L26.1387 34.0408L21.8777 35.3778L23.1926 39.6462L19.3767 41.9682L21.681 45.7959L18.5322 48.9654L21.681 52.1364L19.3767 55.964L23.1926 58.2875L21.8792 62.556L26.1417 63.893L25.8873 68.3537L30.345 68.6347L31.16 73.0273L35.5556 72.2375L37.3984 76.3063L41.4745 74.4841L44.2447 77.9894L47.7677 75.2414Z" fill="#F26722"/>
<path d="M47.7673 71.1703C60.0312 71.1703 69.9731 61.2285 69.9731 48.9646C69.9731 36.7007 60.0297 26.7588 47.7673 26.7588C35.5034 26.7588 25.5615 36.7007 25.5615 48.9646C25.5615 61.2285 35.5019 71.1703 47.7673 71.1703Z" fill="#F78F1E"/>
<path d="M25.8352 8.72754C17.8944 13.1291 21.2754 34.4119 33.387 56.2627C45.0149 77.2409 60.4631 91.1155 68.7056 88.298" stroke="#23103A" stroke-width="8.60781"/>
</svg>
