<svg width="96" height="96" viewBox="0 0 96 96" fill="none" xmlns="http://www.w3.org/2000/svg">
<rect width="96" height="96" fill="white"/>
<path d="M49.9222 52.3493C46.4385 55.8356 46.4385 61.4854 49.9222 64.9718C53.4085 68.4554 59.0583 68.4554 62.542 64.9718C66.0283 61.4854 66.0283 55.8356 62.542 52.3493C59.0583 48.8656 53.4085 48.8656 49.9222 52.3493ZM59.3565 61.7916C58.9464 62.2023 58.4594 62.5281 57.9233 62.7504C57.3871 62.9727 56.8125 63.0871 56.2321 63.0871C55.6517 63.0871 55.077 62.9727 54.5409 62.7504C54.0048 62.5281 53.5178 62.2023 53.1077 61.7916C52.6974 61.3815 52.3719 60.8946 52.1498 60.3586C51.9277 59.8227 51.8134 59.2483 51.8134 58.6682C51.8134 58.088 51.9277 57.5136 52.1498 56.9777C52.3719 56.4418 52.6974 55.9548 53.1077 55.5447C53.5178 55.1341 54.0048 54.8082 54.5409 54.5859C55.077 54.3636 55.6517 54.2492 56.2321 54.2492C56.8125 54.2492 57.3871 54.3636 57.9233 54.5859C58.4594 54.8082 58.9464 55.1341 59.3565 55.5447C61.0817 57.262 61.0817 60.0663 59.3565 61.7916ZM62.3946 8.43815L56.926 13.906C56.4112 14.4247 56.1223 15.1259 56.1223 15.8567C56.1223 16.5875 56.4112 17.2887 56.926 17.8074L78.275 39.1564C78.7937 39.6712 79.4949 39.96 80.2257 39.96C80.9565 39.96 81.6576 39.6712 82.1763 39.1564L87.6442 33.6878C88.7134 32.6187 88.7134 30.8582 87.6442 29.7897L66.286 8.43748C65.7686 7.92393 65.0692 7.63574 64.3403 7.63574C63.6113 7.63574 62.9119 7.9246 62.3946 8.43815ZM24.0835 78.3128C24.5497 77.8445 24.8115 77.2105 24.8115 76.5497C24.8115 75.8889 24.5497 75.2549 24.0835 74.7866L21.3057 72.0062C20.8369 71.5401 20.2027 71.2785 19.5416 71.2785C18.8806 71.2785 18.2464 71.5401 17.7775 72.0062L12.0374 77.7497L12.0268 77.7576L10.4523 76.1805C9.58036 75.3086 8.16126 75.3086 7.29798 76.1805C6.42606 77.0517 6.42606 78.4708 7.29798 79.3348L16.7582 88.7924C16.965 88.9995 17.2107 89.1639 17.4811 89.276C17.7514 89.3882 18.0413 89.4459 18.334 89.4459C18.6268 89.4459 18.9166 89.3882 19.187 89.276C19.4574 89.1639 19.703 88.9995 19.9099 88.7924C20.7731 87.9205 20.7818 86.5013 19.9099 85.6407L18.3327 84.0636L18.3433 84.0556L24.0835 78.3128Z" fill="#F5A800"/>
<path d="M53.0095 24.1374L40.8618 36.2844C39.7827 37.3635 39.7827 39.1406 40.8618 40.2197L48.3631 47.7189C53.6649 43.9032 61.0998 44.3754 65.8698 49.1487L71.9446 43.0732C73.0217 41.9941 73.0217 40.2197 71.9446 39.1406L56.9428 24.1374C56.6847 23.879 56.3781 23.674 56.0408 23.5341C55.7034 23.3943 55.3417 23.3223 54.9765 23.3223C54.6112 23.3223 54.2496 23.3943 53.9122 23.5341C53.5748 23.674 53.2676 23.879 53.0095 24.1374ZM45.2088 50.8805L40.7781 46.4499C39.7402 45.4126 38.0389 45.4126 37.0036 46.4499L21.3782 62.0819C20.8798 62.584 20.6001 63.2628 20.6001 63.9702C20.6001 64.6777 20.8798 65.3564 21.3782 65.8585L30.2308 74.7118C30.7329 75.2104 31.4118 75.4902 32.1194 75.4902C32.8271 75.4902 33.5059 75.2104 34.008 74.7118L44.0566 64.6466C41.9323 60.2578 42.3135 54.9559 45.2088 50.8805Z" fill="#425CC7"/>
</svg>
