<svg width="96" height="96" viewBox="0 0 96 96" fill="none" xmlns="http://www.w3.org/2000/svg">
<rect width="96" height="96" fill="black"/>
<path d="M36.2479 52.3096C36.2479 60.0101 33.1241 66.4397 28.0387 72.3605H39.8805V78.0996H21.7183V72.6513C27.2759 66.3671 29.419 61.2455 29.419 52.3096H36.2479Z" fill="white"/>
<path d="M59.7522 52.3096C59.7522 60.0101 62.876 66.4397 67.9616 72.3605H56.1196V78.0996H74.2818V72.6513C68.7241 66.3671 66.5812 61.2455 66.5812 52.3096H59.7522Z" fill="white"/>
<path d="M36.2478 43.6935C36.2478 35.9929 33.1241 29.5634 28.0387 23.6426H39.8804V17.9033H21.7183V23.352C27.2759 29.6361 29.419 34.7579 29.419 43.6935H36.2478Z" fill="white"/>
<path d="M59.7522 43.6934C59.7522 35.9929 62.876 29.5634 67.9616 23.6425H56.1196V17.9033H74.2818V23.3519C68.7244 29.6361 66.5812 34.7579 66.5812 43.6934H59.7522Z" fill="white"/>
</svg>
