<svg width="96" height="96" viewBox="0 0 96 96" fill="none" xmlns="http://www.w3.org/2000/svg">
<rect width="96" height="96" fill="white"/>
<path d="M84.9743 43.2147C84.8393 41.8443 84.6142 40.2717 84.1641 38.5194C83.7139 36.7895 83.0387 34.88 82.0484 32.903C81.0581 30.926 79.7752 28.8816 78.1097 26.8821C77.457 26.0958 76.7367 25.332 75.9715 24.5906C77.1194 20.0301 74.576 16.0761 74.576 16.0761C70.1872 15.8065 67.3963 17.4465 66.3609 18.1879C66.1809 18.1205 66.0233 18.0306 65.8433 17.9632C65.1005 17.6712 64.3353 17.3791 63.5251 17.132C62.7373 16.8849 61.927 16.6602 61.0943 16.458C60.2615 16.2558 59.4288 16.0986 58.5735 15.9638C58.4159 15.9413 58.2809 15.9189 58.1233 15.8964C56.2102 9.7857 50.7185 7.22461 50.7185 7.22461C44.5741 11.1112 43.4262 16.5479 43.4262 16.5479C43.4262 16.5479 43.4037 16.6602 43.3587 16.8624C43.0211 16.9523 42.6835 17.0646 42.3459 17.1545C41.8732 17.2893 41.4005 17.469 40.9504 17.6487C40.4778 17.8284 40.0276 18.0082 39.555 18.2104C38.6322 18.6147 37.7094 19.0641 36.8091 19.5583C35.9313 20.0526 35.076 20.5917 34.2433 21.1534C34.1307 21.1084 34.0182 21.0635 34.0182 21.0635C25.5105 17.8284 17.9706 21.715 17.9706 21.715C17.2729 30.7463 21.3692 36.4301 22.1795 37.4635C21.9769 38.0252 21.7968 38.5868 21.6168 39.1484C20.9866 41.1928 20.5139 43.2821 20.2213 45.4613C20.1763 45.7758 20.1313 46.0904 20.1088 46.4049C12.2313 50.2915 9.91309 58.2219 9.91309 58.2219C16.4627 65.7479 24.1151 66.2197 24.1151 66.2197L24.1376 66.1972C25.1054 67.9271 26.2307 69.5671 27.4911 71.1172C28.0313 71.7687 28.5715 72.3753 29.1567 72.9819C26.7709 79.8115 29.4943 85.4728 29.4943 85.4728C36.7866 85.7424 41.5806 82.2827 42.5934 81.4964C43.3137 81.7435 44.0564 81.9682 44.7991 82.1479C47.0498 82.732 49.3456 83.069 51.6413 83.1589C52.204 83.1813 52.7892 83.2038 53.3518 83.1813H53.6219H53.802H54.1621L54.5222 83.1589V83.1813C57.9658 88.0788 63.9977 88.7753 63.9977 88.7753C68.2966 84.2597 68.5441 79.7665 68.5441 78.8005C68.5441 78.8005 68.5441 78.778 68.5441 78.7331C68.5441 78.6432 68.5441 78.5983 68.5441 78.5983C68.5441 78.5309 68.5441 78.4635 68.5441 78.3961C69.4444 77.7671 70.2997 77.0931 71.11 76.3517C72.8205 74.8016 74.3285 73.0268 75.5889 71.1172C75.7014 70.9375 75.8139 70.7578 75.9265 70.578C80.788 70.8476 84.2316 67.5676 84.2316 67.5676C83.4213 62.5128 80.5404 60.0416 79.9327 59.5698C79.9327 59.5698 79.9102 59.5473 79.8652 59.5249C79.8202 59.5024 79.8202 59.4799 79.8202 59.4799C79.7977 59.4575 79.7527 59.435 79.7077 59.4126C79.7302 59.098 79.7527 58.806 79.7752 58.4915C79.8202 57.9523 79.8202 57.3906 79.8202 56.8515V56.4471V56.2449V56.1325C79.8202 55.9978 79.8202 56.0427 79.8202 55.9978L79.7977 55.6608L79.7752 55.2115C79.7752 55.0542 79.7527 54.9194 79.7302 54.7846C79.7077 54.6498 79.7077 54.4926 79.6852 54.3578L79.6401 53.9309L79.5726 53.5041C79.4826 52.9424 79.3926 52.4032 79.2575 51.8416C78.7399 49.6624 77.8846 47.5956 76.7817 45.7309C75.6564 43.8662 74.2609 42.2263 72.6629 40.8334C71.0874 39.4405 69.3094 38.3172 67.4638 37.486C65.5957 36.6547 63.6601 36.1156 61.7245 35.8684C60.7567 35.7336 59.7889 35.6887 58.8211 35.7112H58.4609H58.3709C58.3484 35.7112 58.2359 35.7112 58.2584 35.7112H58.1008L57.7407 35.7336C57.6057 35.7336 57.4706 35.7561 57.3581 35.7561C56.8629 35.801 56.3678 35.8684 55.8951 35.9583C53.9595 36.3178 52.1364 37.0142 50.5384 37.9802C48.9404 38.9463 47.545 40.1369 46.4196 41.4849C45.2943 42.8328 44.4165 44.338 43.8088 45.8882C43.2011 47.4383 42.8635 49.0558 42.7735 50.606C42.751 50.9879 42.751 51.3923 42.751 51.7742C42.751 51.8641 42.751 51.9764 42.751 52.0663L42.7735 52.3808C42.796 52.5605 42.796 52.7627 42.8185 52.9424C42.886 53.7287 43.0436 54.4926 43.2461 55.2115C43.6738 56.6717 44.349 57.9972 45.1817 59.1205C46.0145 60.2438 47.0273 61.1649 48.0852 61.9062C49.143 62.6252 50.2909 63.1419 51.4162 63.4789C52.5416 63.8158 53.6669 63.9506 54.7248 63.9506C54.8598 63.9506 54.9949 63.9506 55.1074 63.9506C55.1749 63.9506 55.2424 63.9506 55.31 63.9506C55.3775 63.9506 55.445 63.9506 55.5125 63.9282C55.6251 63.9282 55.7376 63.9057 55.8501 63.9057C55.8726 63.9057 55.9176 63.9057 55.9402 63.8832L56.0527 63.8608C56.1202 63.8608 56.1877 63.8383 56.2552 63.8383C56.3903 63.8158 56.5028 63.7934 56.6379 63.7709C56.7729 63.7484 56.8854 63.726 56.998 63.681C57.2456 63.6361 57.4706 63.5462 57.6957 63.4789C58.1459 63.3216 58.596 63.1419 58.9786 62.9397C59.3837 62.7375 59.7439 62.4904 60.104 62.2657C60.194 62.1983 60.3065 62.1309 60.3966 62.041C60.7567 61.749 60.8242 61.2098 60.5316 60.8504C60.284 60.5358 59.8339 60.446 59.4738 60.6482C59.3837 60.6931 59.2937 60.738 59.2037 60.783C58.8886 60.9402 58.5735 61.075 58.2359 61.1873C57.8983 61.2997 57.5382 61.3895 57.178 61.4569C56.998 61.4794 56.8179 61.5019 56.6154 61.5243C56.5253 61.5243 56.4353 61.5468 56.3228 61.5468C56.2327 61.5468 56.1202 61.5468 56.0527 61.5468C55.9627 61.5468 55.8726 61.5468 55.7826 61.5468C55.6701 61.5468 55.5575 61.5468 55.445 61.5243C55.445 61.5243 55.3775 61.5243 55.4225 61.5243H55.3775H55.31C55.2649 61.5243 55.1974 61.5243 55.1524 61.5019C55.0399 61.4794 54.9498 61.4794 54.8373 61.4569C54.0045 61.3446 53.1718 61.0975 52.384 60.738C51.5738 60.3786 50.8085 59.8843 50.1108 59.2553C49.4131 58.6263 48.8054 57.8849 48.3327 57.0312C47.8601 56.1775 47.5225 55.2339 47.3649 54.2454C47.2974 53.7512 47.2524 53.2345 47.2749 52.7402C47.2749 52.6054 47.2974 52.4706 47.2974 52.3358C47.2974 52.3808 47.2974 52.3134 47.2974 52.3134V52.2684V52.1561C47.2974 52.0887 47.3199 52.0213 47.3199 51.9539C47.3424 51.6843 47.3874 51.4147 47.4325 51.1452C47.8151 48.9884 48.8954 46.8767 50.561 45.2816C50.9886 44.8772 51.4387 44.5178 51.9114 44.1808C52.384 43.8438 52.9017 43.5517 53.4419 43.3046C53.982 43.0575 54.5222 42.8553 55.1074 42.698C55.6701 42.5408 56.2553 42.4509 56.8629 42.3835C57.1555 42.361 57.4481 42.3386 57.7632 42.3386C57.8533 42.3386 57.8983 42.3386 57.9658 42.3386H58.2134H58.3709C58.4384 42.3386 58.3709 42.3386 58.3934 42.3386H58.4609L58.7085 42.361C59.3612 42.406 59.9914 42.4958 60.6216 42.6531C61.882 42.9227 63.1199 43.3945 64.2678 44.0235C66.5635 45.3041 68.5216 47.281 69.7145 49.6624C70.3222 50.8531 70.7498 52.1336 70.9524 53.4591C70.9974 53.7961 71.0424 54.1331 71.0649 54.4701L71.0874 54.7172L71.11 54.9643C71.11 55.0542 71.11 55.1441 71.11 55.2115C71.11 55.3013 71.11 55.3912 71.11 55.4586V55.6832V55.9304C71.11 56.0876 71.0874 56.3572 71.0874 56.5145C71.0649 56.8739 71.0199 57.2558 70.9749 57.6153C70.9299 57.9747 70.8624 58.3342 70.7949 58.6936C70.7273 59.0531 70.6373 59.4126 70.5473 59.7495C70.3672 60.446 70.1421 61.1424 69.8721 61.8389C69.3319 63.1868 68.6117 64.4898 67.7564 65.6805C66.0233 68.0619 63.6601 69.9939 60.9592 71.2295C59.6088 71.8361 58.1909 72.2854 56.7279 72.5101C56.0077 72.6449 55.2649 72.7123 54.5222 72.7347H54.3872H54.2746H54.027H53.6669H53.4869C53.5769 72.7347 53.4644 72.7347 53.4644 72.7347H53.3968C52.9917 72.7347 52.6091 72.7123 52.204 72.6673C50.6285 72.555 49.0755 72.263 47.545 71.8361C46.037 71.4093 44.5741 70.8027 43.1786 70.0838C40.4102 68.601 37.9119 66.5791 35.9763 64.1304C35.0085 62.9172 34.1533 61.5917 33.4555 60.2213C32.7578 58.8509 32.1951 57.3906 31.79 55.9304C31.3849 54.4476 31.1373 52.9424 31.0248 51.4147L31.0023 51.1227V51.0553V50.9879V50.8531V50.606V50.5386V50.4487V50.269V49.9095V49.8421C31.0023 49.8421 31.0023 49.8646 31.0023 49.8197V49.6849C31.0023 49.5052 31.0023 49.303 31.0023 49.1232C31.0248 48.3819 31.0923 47.5956 31.1823 46.8317C31.2723 46.0679 31.4074 45.2816 31.5649 44.5178C31.7225 43.7539 31.9025 42.9901 32.1276 42.2263C32.5553 40.721 33.0954 39.2608 33.7256 37.8904C35.0085 35.1495 36.6741 32.7008 38.6772 30.7463C39.1723 30.252 39.69 29.8027 40.2302 29.3534C40.7703 28.9265 41.333 28.5221 41.9182 28.1402C42.4809 27.7583 43.0886 27.4213 43.6963 27.1068C43.9889 26.9495 44.304 26.7923 44.6191 26.6575C44.7766 26.5901 44.9342 26.5227 45.0917 26.4553C45.2493 26.3879 45.4068 26.3205 45.5644 26.2531C46.1946 25.9835 46.8473 25.7589 47.5225 25.5567C47.68 25.5117 47.8601 25.4668 48.0176 25.3994C48.1752 25.3545 48.3553 25.3095 48.5128 25.2646C48.8504 25.1747 49.188 25.0849 49.5256 25.0175C49.6832 24.9726 49.8632 24.9501 50.0433 24.9052C50.2233 24.8602 50.3809 24.8378 50.561 24.7928C50.741 24.7704 50.8986 24.7254 51.0786 24.703L51.3262 24.658L51.5963 24.6131C51.7763 24.5906 51.9339 24.5682 52.1139 24.5457C52.3165 24.5232 52.4966 24.5008 52.6991 24.4783C52.8567 24.4558 53.1268 24.4334 53.2843 24.4109C53.3968 24.3884 53.5319 24.3884 53.6444 24.366L53.892 24.3435L54.0045 24.321H54.1396C54.3421 24.2986 54.5222 24.2986 54.7248 24.2761L55.0174 24.2537C55.0174 24.2537 55.1299 24.2537 55.0399 24.2537H55.1074H55.2424C55.4 24.2537 55.58 24.2312 55.7376 24.2312C56.3903 24.2087 57.0655 24.2087 57.7182 24.2312C59.0236 24.2761 60.3065 24.4334 61.5444 24.658C64.0427 25.1298 66.3835 25.9161 68.5216 26.972C70.6598 28.0054 72.5504 29.286 74.2159 30.6789C74.3285 30.7687 74.4185 30.8586 74.531 30.9484C74.6211 31.0383 74.7336 31.1282 74.8236 31.218C75.0262 31.3978 75.2062 31.5775 75.4088 31.7572C75.6114 31.9369 75.7914 32.1167 75.9715 32.2964C76.1515 32.4761 76.3316 32.6558 76.5117 32.858C77.2094 33.5994 77.8621 34.3408 78.4473 35.1046C79.6176 36.6098 80.5629 38.1375 81.3057 39.5753C81.3507 39.6652 81.3957 39.755 81.4407 39.8449C81.4857 39.9347 81.5307 40.0246 81.5758 40.1145C81.6658 40.2942 81.7558 40.4739 81.8233 40.6536C81.9134 40.8334 81.9809 40.9906 82.0709 41.1704C82.1384 41.3501 82.2285 41.5073 82.296 41.6871C82.5661 42.361 82.8362 43.0126 83.0387 43.6191C83.3763 44.6076 83.6239 45.4838 83.8265 46.2476C83.894 46.5621 84.1866 46.7643 84.5017 46.7194C84.8393 46.6969 85.0869 46.4273 85.0869 46.0904C85.1094 45.2816 85.0869 44.3156 84.9743 43.2147Z" fill="url(#paint0_linear_6115_517)"/>
<defs>
<linearGradient id="paint0_linear_6115_517" x1="47.5" y1="31.6" x2="47.5" y2="88.1799" gradientUnits="userSpaceOnUse">
<stop stop-color="#F05A28"/>
<stop offset="1" stop-color="#FBCA0A"/>
</linearGradient>
</defs>
</svg>
