<svg xmlns="http://www.w3.org/2000/svg" id="Layer_2" data-name="Layer 2" viewBox="0 0 147.08 37"><g id="Layer_1-2" data-name="Layer 1"><g><g><path d="M100.83,10.75c0-2.88-1.9-3.64-3.51-3.64h-7.5v7.09h7.5c2.32.07,3.51-1.34,3.51-3.45Z" style="fill: none;"/><path d="M54.03,7.17h-7.86v9.12h7.86c2.81,0,3.58-.98,3.58-4.62,0-3.3-1.11-4.49-3.58-4.49Z" style="fill: none;"/><path d="M97.75,21.07h-7.93v8.84h7.93c2.24,0,3.73-1.13,3.73-4.35.07-2.39-.92-4.49-3.73-4.49Z" style="fill: none;"/><path d="M17.41,7.17h-8.22v22.67h8.2c4.28,0,5.75-3.92,5.75-11.23.02-9.54-2.16-11.44-5.74-11.44Z" style="fill: none;"/><path d="M132.13,7.17h-8.2v22.67h8.2c4.28,0,5.75-3.92,5.75-11.23.02-9.54-2.17-11.44-5.75-11.44Z" style="fill: none;"/><path d="M18.24.02H0v36.98h18.24c9.76,0,14.1-6.52,14.1-18.39C32.34,8.92,29.76.02,18.24.02ZM17.41,29.84h-8.22V7.17h8.2c3.58,0,5.75,1.9,5.75,11.44.02,7.29-1.45,11.23-5.74,11.23Z" style="fill: #0f0f0f;"/><path d="M64.7,15.46v-5.13c0-.21,0-.34.07-.49.15-1.13.7-2.24,1.54-2.94C64.77,1.7,60.57.02,55.16.02h-18.17v36.98h9.2v-14.32l5.33.7,6.11,13.61h10.38l-7.44-14.32c1.68-.56,3.92-1.26,5.26-4.35-.56-.7-.98-1.54-1.05-2.45-.08-.08-.08-.29-.08-.42ZM54.03,16.29h-7.86V7.17h7.86c2.45,0,3.58,1.19,3.58,4.49,0,3.64-.77,4.62-3.58,4.62Z" style="fill: #0f0f0f;"/><path d="M104.14,17.76c4-.49,5.82-4.49,5.82-7.8,0-5.75-3.3-9.97-11.93-9.97h-17.39v6.46c1.26.85,2.17,2.39,2.17,3.86v5.12c0,1.13-.56,2.39-1.41,3.24.85.85,1.41,2.11,1.41,3.24v5.12c0,1.47-.92,3.09-2.17,3.86v6.11h17.54c8.63,0,12.57-3.58,12.57-11.08,0-4.27-2.88-7.5-6.6-8.14ZM89.82,7.17h7.5c1.68,0,3.51.7,3.51,3.64,0,2.11-1.19,3.51-3.51,3.51h-7.5v-7.16ZM97.75,29.84h-7.93v-8.84h7.93c2.81,0,3.73,2.17,3.73,4.49.07,3.22-1.41,4.35-3.73,4.35Z" style="fill: #0f0f0f;"/><path d="M132.98.02h-18.24v36.98h18.24c9.76,0,14.1-6.52,14.1-18.39,0-9.69-2.6-18.6-14.1-18.6ZM132.13,29.84h-8.2V7.17h8.2c3.58,0,5.75,1.9,5.75,11.44.02,7.29-1.54,11.23-5.75,11.23Z" style="fill: #0f0f0f;"/></g><path d="M79.36,8.22l-4.43-2.53c-.7-.42-1.75-.42-2.45,0l-4.43,2.53c-.64.34-1.13,1.19-1.19,1.96v5.41c.07.64.49,1.41.98,1.75l3.51-2.04c.85-.49,1.75-.56,2.32-.56.64,0,1.47.07,2.32.56l3.51,2.04c.56-.42.98-1.26.98-1.96v-5.12c.15-.7-.42-1.68-1.13-2.04Z" style="fill: #0f0f0f;"/><path d="M79.57,20.02c-.07-.07-.15-.15-.21-.15l-1.96-1.13-2.45-1.41c-.34-.21-.77-.28-1.19-.28s-.92.07-1.19.28l-2.45,1.41-1.96,1.13c-.07.07-.15.15-.21.15-.56.42-.92,1.13-.98,1.75v5.41c.07.77.56,1.62,1.19,1.96l4.43,2.53c.34.21.77.28,1.19.28s.92-.07,1.19-.28l4.43-2.53c.7-.42,1.19-1.34,1.19-2.11v-5.12c.05-.7-.44-1.47-1.01-1.9Z" style="fill: #0f0f0f;"/></g></g></svg>
