<svg width="96" height="96" viewBox="0 0 96 96" fill="none" xmlns="http://www.w3.org/2000/svg">
<rect width="96" height="96" fill="#434C5F"/>
<path d="M53.551 40.6719C53.5508 37.4682 50.954 34.8711 47.7502 34.8711C44.5465 34.8711 41.9497 37.4682 41.9495 40.6719C41.9495 42.3494 42.6583 43.8594 43.7991 44.9209C44.0551 45.1592 44.2909 45.3767 44.4709 45.5596C44.6298 45.7209 44.8854 45.9905 45.0657 46.3379C45.1506 46.5017 45.2495 46.7146 45.3166 46.9775C45.3837 47.2405 45.3987 47.4746 45.4026 47.6592C45.4101 48.0161 45.3399 48.3266 45.2795 48.5479C45.22 48.7656 45.1345 49.0191 45.052 49.2666L42.7424 56.1943C42.6995 56.3231 42.6628 56.4374 42.6291 56.54C42.7371 56.5406 42.8568 56.542 42.9924 56.542H52.5081C52.6433 56.542 52.7626 56.5406 52.8704 56.54C52.8367 56.4375 52.8009 56.323 52.7581 56.1943L50.4485 49.2666C50.366 49.0191 50.2804 48.7657 50.2209 48.5479C50.1605 48.3266 50.0894 48.0161 50.0969 47.6592C50.1008 47.4746 50.1167 47.2405 50.1838 46.9775C50.251 46.7146 50.3498 46.5017 50.4348 46.3379L50.5051 46.2119C50.6771 45.9251 50.8904 45.7009 51.0295 45.5596C51.2095 45.3768 51.4446 45.159 51.7004 44.9209C52.8412 43.8594 53.551 42.3494 53.551 40.6719ZM70.0002 42.5459V33.1992C70.0002 30.6575 69.9722 29.8501 69.7219 29.1924C69.4764 28.5474 69.0776 27.9719 68.5598 27.5156C68.0319 27.0505 67.2862 26.741 64.9065 25.8486L48.8215 19.8164C48.1275 19.5561 48.0193 19.5257 47.9289 19.5127C47.8104 19.4956 47.69 19.4956 47.5715 19.5127C47.4812 19.5257 47.373 19.5561 46.6789 19.8164L30.594 25.8486C28.2143 26.741 27.4686 27.0505 26.9407 27.5156C26.4229 27.9719 26.024 28.5474 25.7786 29.1924C25.5283 29.8501 25.5002 30.6575 25.5002 33.1992V47.5459C25.5002 54.2569 29.1683 60.2011 33.7747 65C38.3615 69.7784 43.6829 73.2131 46.5383 74.8789C47.373 75.3659 47.6551 76.4377 47.1682 77.2725C46.6812 78.1072 45.6094 78.3892 44.7747 77.9023C41.786 76.1588 36.1543 72.5338 31.2493 67.4238C26.3637 62.3341 22.0002 55.5603 22.0002 47.5459V33.1992C22.0002 30.9439 21.9728 29.3514 22.5071 27.9473C22.9547 26.7711 23.6821 25.7217 24.6262 24.8896C25.7533 23.8964 27.2538 23.3632 29.3655 22.5713L45.4504 16.5391C46.0036 16.3316 46.5194 16.1285 47.0706 16.0488C47.5211 15.9837 47.9794 15.9837 48.4299 16.0488C48.981 16.1285 49.4969 16.3316 50.05 16.5391L66.135 22.5713C68.2467 23.3632 69.7472 23.8964 70.8743 24.8896C71.8184 25.7217 72.5458 26.7711 72.9934 27.9473C73.5277 29.3514 73.5002 30.9439 73.5002 33.1992V42.5459C73.5002 43.5124 72.7167 44.2959 71.7502 44.2959C70.7837 44.2959 70.0002 43.5124 70.0002 42.5459ZM57.051 40.6719C57.051 43.3612 55.9076 45.7865 54.0852 47.4824C53.9065 47.6487 53.7752 47.7744 53.6731 47.8721C53.6997 47.9537 53.731 48.0469 53.7688 48.1602L56.0784 55.0879C56.2171 55.5041 56.3598 55.9272 56.4456 56.29C56.5333 56.6614 56.6183 57.1862 56.4729 57.7656C56.2858 58.5108 55.8208 59.1561 55.1731 59.5693C54.6694 59.8906 54.144 59.9756 53.7639 60.0098C53.3928 60.0431 52.9465 60.042 52.5081 60.042H42.9924C42.554 60.042 42.1077 60.0431 41.7366 60.0098C41.3564 59.9756 40.8311 59.8906 40.3274 59.5693C39.6796 59.1561 39.2147 58.5108 39.0276 57.7656C38.8821 57.1862 38.9672 56.6614 39.0549 56.29C39.1407 55.9272 39.2834 55.504 39.4221 55.0879L41.7317 48.1602C41.7694 48.0472 41.7989 47.9536 41.8254 47.8721C41.7234 47.7745 41.5934 47.6482 41.4153 47.4824C39.5928 45.7865 38.4495 43.3613 38.4495 40.6719C38.4497 35.5352 42.6135 31.3711 47.7502 31.3711C52.887 31.3711 57.0508 35.5352 57.051 40.6719Z" fill="white"/>
<path d="M78.881 59.1504L76.9601 61.0723C76.6919 61.3405 76.4173 61.6172 76.1642 61.832C75.8955 62.0602 75.5382 62.3197 75.0646 62.4736C74.4202 62.683 73.7256 62.683 73.0812 62.4736C72.6076 62.3197 72.2504 62.0602 71.9816 61.832C71.7285 61.6172 71.454 61.3405 71.1857 61.0723L70.1105 59.9971C69.8422 59.7287 69.5657 59.4533 69.3507 59.2002C69.1226 58.9314 68.863 58.5743 68.7091 58.1006C68.4998 57.4563 68.4998 56.7624 68.7091 56.1182L68.7716 55.9453C68.9275 55.5562 69.1512 55.2536 69.3507 55.0186C69.5657 54.7654 69.8422 54.49 70.1105 54.2217L72.0314 52.3008C71.983 52.2998 71.9345 52.2969 71.8859 52.2969C68.0199 52.2969 64.8859 55.4309 64.8859 59.2969C64.8859 59.8724 64.9546 60.4293 65.0841 60.9609C65.1674 61.3027 65.2429 61.6117 65.2931 61.8613C65.3388 62.0887 65.3999 62.4289 65.3752 62.79C65.3426 63.2652 65.2417 63.624 65.0226 64.0469C64.7616 64.5505 64.3021 64.9803 64.005 65.2773L54.8937 74.3887C54.3691 74.9134 54.369 75.7644 54.8937 76.2891C55.4184 76.8135 56.2695 76.8136 56.7941 76.2891L65.9054 67.1768C66.2023 66.8798 66.6317 66.4211 67.1349 66.1602L67.2912 66.083C67.6497 65.9165 67.9769 65.8361 68.3927 65.8076L68.6584 65.8037C68.917 65.8126 69.151 65.8554 69.3214 65.8896C69.5711 65.9398 69.8801 66.0154 70.2218 66.0986C70.7533 66.228 71.3106 66.2969 71.8859 66.2969C75.7517 66.2966 78.8859 63.1627 78.8859 59.2969C78.8859 59.2479 78.882 59.1991 78.881 59.1504ZM82.3859 59.2969C82.3859 65.0957 77.6847 69.7966 71.8859 69.7969C71.0292 69.7969 70.1934 69.6941 69.3927 69.499C69.0722 69.4209 68.8595 69.3697 68.7023 69.3359C68.6273 69.408 68.5267 69.5057 68.38 69.6523L59.2687 78.7637C57.3772 80.655 54.3106 80.6549 52.4191 78.7637C50.5276 76.8722 50.5276 73.8056 52.4191 71.9141L61.5304 62.8018C61.6766 62.6556 61.7729 62.5544 61.8449 62.4795C61.8111 62.3223 61.7617 62.1092 61.6838 61.7891C61.4887 60.9884 61.3859 60.1535 61.3859 59.2969C61.3859 53.4979 66.0869 48.7969 71.8859 48.7969C73.4232 48.7969 74.8878 49.1285 76.2082 49.7256C76.7316 49.9623 77.106 50.4408 77.2091 51.0059C77.3122 51.5711 77.131 52.1513 76.7248 52.5576L72.5851 56.6973C72.438 56.8443 72.3222 56.96 72.2238 57.0615C72.2077 57.0781 72.1932 57.0944 72.1789 57.1094C72.1932 57.1243 72.2077 57.1406 72.2238 57.1572C72.3222 57.2588 72.438 57.3744 72.5851 57.5215L73.6603 58.5967C73.8073 58.7437 73.9231 58.8597 74.0246 58.958C74.0408 58.9738 74.0578 58.9879 74.0724 59.002C74.0872 58.9878 74.1048 58.9739 74.1213 58.958C74.2227 58.8597 74.3385 58.7437 74.4855 58.5967L78.6252 54.458L78.7843 54.3164C79.1753 54.0108 79.6812 53.8834 80.1759 53.9736C80.741 54.0767 81.2194 54.4504 81.4562 54.9736C82.0534 56.2942 82.3859 57.7594 82.3859 59.2969Z" fill="white"/>
</svg>
