<svg width="96" height="96" viewBox="0 0 96 96" fill="none" xmlns="http://www.w3.org/2000/svg">
<rect width="96" height="96" fill="white"/>
<path d="M47.5003 13C27.8949 13 12 28.8933 12 48.4997C12 68.1055 27.8949 84 47.5003 84C67.1058 84 83 68.1055 83 48.4997C83 28.8933 67.1051 13 47.5003 13ZM47.5003 79.4417C41.9222 79.4417 37.3997 75.7154 37.3997 71.1201H57.6009C57.6009 75.7148 53.0784 79.4417 47.5003 79.4417ZM64.1833 68.3642H30.8155V62.3137H64.1839L64.1833 68.3642ZM64.0636 59.1994H30.9107C30.8004 59.0722 30.6877 58.9469 30.5812 58.8179C27.1656 54.6706 26.3613 52.5054 25.58 50.2989C25.5669 50.2263 29.7217 51.1478 32.668 51.8107C32.668 51.8107 34.184 52.1615 36.4005 52.5656C34.2723 50.0709 33.0088 46.8997 33.0088 43.6582C33.0088 36.542 38.4666 30.3235 36.4976 25.2972C38.414 25.4532 40.4638 29.3418 40.6022 35.4218C42.6395 32.6064 43.4921 27.4649 43.4921 24.3124C43.4921 21.0484 45.6428 17.257 47.7941 17.1273C45.8765 20.2879 48.2909 22.9974 50.4372 29.719C51.2422 32.2437 51.1395 36.4925 51.761 39.187C51.9671 33.5906 52.9293 25.425 56.4795 22.6059C54.9134 26.1562 56.7113 30.5985 57.9411 32.7342C59.9251 36.1799 61.128 38.7904 61.128 43.7278C61.128 47.0381 59.9057 50.1549 57.844 52.5913C60.1883 52.1515 61.8071 51.7549 61.8071 51.7549L69.42 50.2695C69.4206 50.2689 68.3142 54.8184 64.0636 59.1994Z" fill="#E6522C"/>
</svg>
