<svg width="96" height="96" viewBox="0 0 96 96" fill="none" xmlns="http://www.w3.org/2000/svg">
<rect width="96" height="96" fill="white"/>
<g clip-path="url(#clip0_6254_17)">
<path d="M45.9439 31.6759L82.7399 10.641C83.4766 10.2199 84.3117 9.9988 85.1614 10C86.0112 10.0012 86.8457 10.2246 87.5812 10.6479C88.3166 11.0711 88.9273 11.6793 89.3518 12.4113C89.7763 13.1434 89.9998 13.9736 89.9998 14.8187V57.8372C89.9998 59.3559 89.5971 60.8477 88.8323 62.1621C88.0676 63.4766 86.9677 64.5673 85.6438 65.3241L48.8478 86.359C48.1111 86.7801 47.276 87.0012 46.4263 87C45.5765 86.9988 44.742 86.7754 44.0065 86.3521C43.271 85.9289 42.6604 85.3207 42.2359 84.5887C41.8114 83.8566 41.5879 83.0264 41.5879 82.1813V39.1628C41.5879 37.6441 41.9906 36.1523 42.7554 34.8379C43.5201 33.5234 44.62 32.4327 45.9439 31.6759Z" fill="#3E474B"/>
<path d="M73.7076 59.6296L82.3698 54.6707C82.3916 54.6582 82.4163 54.6516 82.4415 54.6514C82.4667 54.6512 82.4916 54.6575 82.5136 54.6697C82.5356 54.6818 82.5541 54.6995 82.5672 54.7209C82.5804 54.7423 82.5877 54.7667 82.5886 54.7917L82.6824 57.545C82.6842 57.5997 82.6711 57.6539 82.6443 57.7017C82.6176 57.7495 82.5783 57.7892 82.5306 57.8165L73.8684 62.7754C73.8466 62.7879 73.8219 62.7946 73.7967 62.7948C73.7715 62.795 73.7467 62.7887 73.7246 62.7765C73.7026 62.7643 73.6841 62.7467 73.671 62.7253C73.6578 62.7039 73.6505 62.6795 73.6496 62.6544L73.5558 59.9011C73.554 59.8464 73.5671 59.7923 73.5939 59.7444C73.6206 59.6966 73.6599 59.6569 73.7076 59.6296Z" fill="#45B34F"/>
<path d="M6.00049 23.4316L9.12628 36.0042L6.80381 45.1778L12.9111 51.2274L16.2991 64.8547L34.1811 72.2959L41.5886 79.6333V50.1372L35.6071 44.2134L33.8789 51.0454L6.00049 23.4316Z" fill="#3E474B"/>
<path d="M16.2988 64.8546L34.1806 72.296L24.6184 62.8242L16.2988 64.8546Z" fill="#515B60"/>
<path d="M41.588 58.6835L6 23.4326L12.9108 51.228L24.6184 62.8248L41.588 58.6835Z" fill="#515B60"/>
<path d="M77.1753 23.4316L74.0495 36.0039L76.3724 45.1775L70.2647 51.2271L66.8768 64.8544L48.9951 72.2959L41.5879 79.6327V50.1372L47.5694 44.2131L49.2975 51.045L77.1753 23.4316Z" fill="#B1BBC0"/>
<path d="M66.877 64.8536L48.9951 72.295L58.5573 62.8232L66.877 64.8536Z" fill="white"/>
<path d="M41.5879 58.6825L77.1759 23.4316L70.2651 51.227L58.5574 62.8238L41.5879 58.6825Z" fill="white"/>
</g>
<defs>
<clipPath id="clip0_6254_17">
<rect width="84" height="77" fill="white" transform="translate(6 10)"/>
</clipPath>
</defs>
</svg>
