<svg width="96" height="96" viewBox="0 0 96 96" fill="none" xmlns="http://www.w3.org/2000/svg">
<rect width="96" height="96" fill="white"/>
<path d="M84.5482 45.0704L50.9273 11.4522C48.9928 9.51593 45.8527 9.51593 43.9158 11.4522L36.9348 18.4342L45.79 27.2898C47.8486 26.5947 50.2082 27.0607 51.8484 28.7013C53.4971 30.3521 53.9598 32.7319 53.2473 34.7975L61.7822 43.3327C63.847 42.6211 66.2294 43.0808 67.8781 44.7326C70.1832 47.0371 70.1832 50.7714 67.8781 53.0765C65.5727 55.3824 61.8386 55.3824 59.5319 53.0765C57.7986 51.3418 57.3699 48.7951 58.2478 46.6594L50.2881 38.6994L50.2874 59.6461C50.8494 59.9243 51.3798 60.2956 51.8481 60.7619C54.1525 63.0661 54.1525 66.7997 51.8481 69.1078C49.543 71.412 45.8072 71.412 43.5045 69.1078C41.1997 66.7999 41.1997 63.0663 43.5045 60.7619C44.0741 60.1933 44.7332 59.7629 45.4364 59.4744V38.3332C44.7328 38.0459 44.0745 37.6188 43.5041 37.0456C41.7583 35.3011 41.3379 32.7388 42.2332 30.5949L33.5037 21.8638L10.4526 44.9151C8.51579 46.8529 8.51579 49.9931 10.4526 51.9295L44.0716 85.5478C46.0071 87.4841 49.1461 87.4841 51.0843 85.5478L84.5478 52.0884C86.4841 50.1511 86.4841 47.01 84.5478 45.0733" fill="#F05133"/>
</svg>
