<svg width="96" height="96" viewBox="0 0 96 96" fill="none" xmlns="http://www.w3.org/2000/svg">
<rect width="96" height="96" fill="#434C5F"/>
<mask id="mask0_6222_66" style="mask-type:alpha" maskUnits="userSpaceOnUse" x="22" y="20" width="52" height="56">
<path d="M48 27.3337V56.267C48 60.6074 48 62.7776 48.8447 64.4354C49.5877 65.8937 50.7733 67.0793 52.2316 67.8223C53.8894 68.667 56.0596 68.667 60.4 68.667H60.9167M60.9167 68.667C60.9167 71.5205 63.2299 73.8337 66.0833 73.8337C68.9368 73.8337 71.25 71.5205 71.25 68.667C71.25 65.8135 68.9368 63.5003 66.0833 63.5003C63.2299 63.5003 60.9167 65.8135 60.9167 68.667ZM35.0833 27.3337L60.9167 27.3337M35.0833 27.3337C35.0833 30.1871 32.7701 32.5003 29.9167 32.5003C27.0632 32.5003 24.75 30.1871 24.75 27.3337C24.75 24.4802 27.0632 22.167 29.9167 22.167C32.7701 22.167 35.0833 24.4802 35.0833 27.3337ZM60.9167 27.3337C60.9167 30.1871 63.2299 32.5003 66.0833 32.5003C68.9368 32.5003 71.25 30.1871 71.25 27.3337C71.25 24.4802 68.9368 22.167 66.0833 22.167C63.2299 22.167 60.9167 24.4802 60.9167 27.3337ZM48 48.0003H60.9167M60.9167 48.0003C60.9167 50.8538 63.2299 53.167 66.0833 53.167C68.9368 53.167 71.25 50.8538 71.25 48.0003C71.25 45.1469 68.9368 42.8337 66.0833 42.8337C63.2299 42.8337 60.9167 45.1469 60.9167 48.0003Z" stroke="black" stroke-width="3.54286" stroke-linecap="round" stroke-linejoin="round"/>
</mask>
<g mask="url(#mask0_6222_66)">
<rect x="17" y="17" width="62" height="62" fill="white"/>
</g>
</svg>
