<svg width="96" height="96" viewBox="0 0 96 96" fill="none" xmlns="http://www.w3.org/2000/svg">
<rect width="96" height="96" fill="white"/>
<path d="M45.4888 11.8814C45.4888 11.905 45.4936 11.9276 45.4941 11.9511C45.4921 12.1603 45.482 12.4123 45.4888 12.5944C45.5218 13.4823 46.2197 13.4459 46.1105 14.7949C46.0044 15.3036 45.6298 15.7688 45.2958 16.0922L45.2368 17.1537C43.7313 17.2784 42.2158 17.5068 40.702 17.8506C34.1882 19.3297 28.5799 22.6853 24.3101 27.216C24.0331 27.027 23.5484 26.6792 23.4042 26.5727C22.9564 26.6332 22.5037 26.7714 21.9141 26.4279C20.7914 25.6722 21.1989 25.1134 20.5254 24.534C20.3724 24.4024 20.139 24.2244 19.9679 24.089C19.4413 23.6692 18.8203 23.4502 18.2205 23.4296C17.4493 23.4032 16.7069 23.7048 16.2211 24.3142C15.3574 25.3976 15.6339 27.0535 16.8375 28.0132C16.8497 28.0229 16.8627 28.0305 16.875 28.04C17.0404 28.1741 17.2429 28.3459 17.395 28.4581C18.1097 28.9859 18.5743 28.4553 19.5609 29.3818C19.9462 29.7925 20.0135 30.5162 20.0648 30.8292L20.8688 31.5475C16.5645 38.0258 14.5725 46.0278 15.7497 54.181L14.6991 54.4866C14.4222 54.8442 14.0309 55.4069 13.6217 55.5749C12.3309 55.9815 11.7819 55.4314 10.9089 55.5968C10.7168 55.6332 10.4491 55.703 10.2389 55.7523C10.2316 55.7538 10.2248 55.756 10.2174 55.7576C10.206 55.7603 10.1909 55.7658 10.1799 55.7683C8.70131 56.1256 7.75145 57.4848 8.05724 58.824C8.36311 60.1635 9.80739 60.9781 11.2949 60.6574C11.3056 60.655 11.3212 60.6546 11.3324 60.6521C11.3492 60.6482 11.364 60.6401 11.3806 60.636C11.588 60.5905 11.8478 60.5398 12.0292 60.4913C12.8875 60.2615 13.1239 59.4462 14.4632 59.2524C15.0226 59.2086 15.612 59.5976 15.9052 59.7617L16.9987 59.5741C19.515 67.3765 24.7886 73.683 31.4662 77.6401L31.0105 78.7337C31.1748 79.1584 31.3559 79.7329 31.2336 80.1523C30.7466 81.4151 29.8547 81.8099 29.4398 82.5955C29.3405 82.7835 29.214 83.0723 29.1182 83.271C28.4734 84.6506 28.9463 86.2396 30.1849 86.836C31.4312 87.436 32.9781 86.8031 33.6476 85.4207C33.6487 85.4187 33.652 85.4173 33.653 85.4153C33.6537 85.4138 33.6523 85.4115 33.653 85.41C33.7483 85.214 33.8834 84.9564 33.9639 84.772C34.3193 83.9577 33.8936 82.6986 34.8074 81.6084C35.0576 81.3099 35.4655 81.195 35.8884 81.0818L36.4566 80.0525C42.278 82.2872 48.7942 82.8869 55.3035 81.4088C56.7884 81.0716 58.222 80.6352 59.6078 80.1115C59.7675 80.3948 60.0643 80.9393 60.1438 81.0764C60.5736 81.2163 61.0427 81.2885 61.425 81.8538C62.1086 83.0218 61.879 83.9148 62.2345 84.7292C62.3155 84.9148 62.45 85.176 62.5454 85.3725C63.2135 86.7594 64.7654 87.3944 66.0135 86.7931C67.2519 86.1965 67.7254 84.6076 67.0803 83.2281C66.9844 83.0294 66.8526 82.7406 66.7533 82.5527C66.3383 81.767 65.3104 81.4761 64.8234 80.2133C64.6198 79.5621 64.8577 79.157 65.0164 78.7338C64.9214 78.6249 64.7181 78.0098 64.5983 77.7206C71.5379 73.6226 76.6566 67.081 79.0604 59.5258C79.385 59.5769 79.9492 59.6767 80.1325 59.7135C80.5097 59.4646 80.8566 59.1399 81.5369 59.1935C82.8762 59.3872 83.1126 60.2079 83.9709 60.4377C84.1523 60.4862 84.4121 60.5315 84.6195 60.5771C84.6361 60.5811 84.6509 60.5893 84.6677 60.5931C84.6789 60.5956 84.6945 60.596 84.7052 60.5985C86.1928 60.9188 87.6373 60.1047 87.9429 58.7651C88.2483 57.4258 87.2989 56.0663 85.8202 55.7094C85.6051 55.6605 85.3 55.5774 85.0912 55.5378C84.2182 55.3725 83.6692 55.9224 82.3784 55.5159C81.8521 55.3117 81.4777 54.6854 81.2956 54.4277L80.2825 54.1328C80.8078 50.3323 80.6662 46.3769 79.7572 42.4194C78.8398 38.4249 77.2185 34.7716 75.0562 31.5529C75.3161 31.3166 75.8069 30.882 75.946 30.7542C75.9867 30.304 75.9518 29.832 76.4177 29.3335C77.4043 28.4071 77.8743 28.9377 78.589 28.4099C78.7507 28.2905 78.9714 28.1015 79.1412 27.9649C80.3445 27.0049 80.6216 25.3491 79.7576 24.2659C78.8936 23.1828 77.2194 23.0808 76.0161 24.0408C75.8448 24.1765 75.6124 24.3534 75.4586 24.4857C74.7851 25.0652 75.1872 25.6292 74.0646 26.3851C73.5781 26.6683 72.8656 26.5703 72.5422 26.5512L71.5881 27.2321C66.1474 21.5263 58.7397 17.8784 50.7633 17.1698C50.741 16.8355 50.7118 16.2312 50.7043 16.0493C50.3778 15.7368 49.9833 15.47 49.8842 14.7949C49.7751 13.4459 50.4783 13.4823 50.5114 12.5944C50.5189 12.3925 50.5068 12.0996 50.506 11.8814C50.5059 10.3419 49.3828 9.09375 47.9974 9.09375C46.6119 9.09375 45.4886 10.3419 45.4888 11.8814ZM45.452 23.7134L48.4688 35.957L44.8638 44.9783C44.8137 46.1614 40.9134 39.0035 40.5474 38.7352L40.5259 38.7459L29.7188 31.0589C33.0402 27.7818 37.2887 25.36 42.1848 24.2445C43.0683 24.0432 43.9514 23.8933 44.8313 23.7852C44.8421 23.7839 45.4412 23.7148 45.452 23.7134ZM51.1183 23.764C51.121 23.7643 51.2866 23.7819 51.2893 23.7822C56.9821 24.481 62.2466 27.0477 66.2812 30.9806L55.5822 38.5313L55.5448 38.5153C54.5952 39.2057 53.2572 39.0344 52.517 38.1106C52.2138 37.7322 52.0547 37.2872 52.0355 36.838L52.0248 36.8327C50.9718 30.9777 50.3447 26.6007 50.1437 23.7016C50.1433 23.6965 50.4682 23.7173 51.1183 23.764ZM25.8709 35.9688L35.6901 44.8091L35.6794 44.8629C36.5657 45.6384 36.6964 46.9842 35.9573 47.9172C35.6545 48.2994 35.2491 48.5557 34.814 48.6754L34.8033 48.7184L22.2168 52.375C21.5762 46.4788 22.9568 40.7473 25.8709 35.9688ZM73.2634 43.913C73.9189 46.769 74.0834 49.6198 73.8131 52.375L61.0522 48.6968L61.0415 48.6429C59.8988 48.3303 59.1965 47.167 59.4625 46.0002C59.5715 45.5222 59.825 45.1178 60.1685 44.8191L60.1631 44.7921L70.014 35.9688C71.4856 38.356 72.6 41.0224 73.2634 43.913ZM45.9837 45.5H50.0216L52.5312 48.6212L51.6304 52.516L48.0054 54.25L44.3696 52.5107L43.4688 48.6159L45.9837 45.5ZM59.347 56.1648L59.3684 56.1381L72.375 58.3397C70.4715 63.6944 66.829 68.3332 61.9622 71.4375L56.9133 59.2268L56.9293 59.2054C56.4655 58.1264 56.9296 56.8611 57.9967 56.3465C58.2699 56.2147 58.5554 56.1418 58.84 56.1274C59.0108 56.1187 59.1808 56.1342 59.347 56.1648ZM36.9312 56.4377C37.9206 56.4516 38.8081 57.139 39.0381 58.1471C39.1457 58.6191 39.0933 59.0868 38.9157 59.4998L38.9529 59.5477L36.5878 65.2689L60.0656 66.8514C61.3302 69.9097 61.9626 71.4389 61.9626 71.4389C57.9357 73.9814 53.2706 75.8125 48.1562 75.8125C42.9236 75.8125 38.0563 74.2465 33.9718 71.5947C33.9524 71.5821 33.9334 71.5693 33.9148 71.5562L33.9731 71.5938C29.3172 68.6032 25.6088 64.1256 23.625 58.6318L36.479 56.4484L36.5002 56.475C36.644 56.4485 36.7898 56.4357 36.9312 56.4377Z" fill="#2F6DE6"/>
<path d="M60.9758 43.3319L61.1217 41.6002C61.131 41.4833 61.1381 41.3888 61.1415 41.3334L61.1498 41.182C61.1615 40.9386 61.1621 40.7373 61.1465 40.5341C61.125 40.2568 61.0789 40.0001 60.9614 39.6986C60.8359 39.3766 60.65 39.0683 60.3539 38.7812C59.8935 38.3348 59.2686 38.0657 58.5895 38.0657C57.6195 38.0657 57.1522 38.3963 56.64 38.9466L56.5842 39.0081L56.5297 39.0709L56.4847 39.1248L56.4748 39.0128C56.2146 36.2154 55.2842 33.1325 53.8637 29.9044C53.0813 28.1263 52.184 26.4045 51.3267 24.982L51.2099 24.7898C50.8816 24.2535 50.5739 23.7874 50.3104 23.4271C50.1431 23.1983 49.989 23.0052 49.8375 22.8406L49.7635 22.7608C49.1936 22.1513 48.8409 21.9062 47.8356 21.9062C47.1281 21.9062 46.4701 22.2027 46.004 22.7003C45.7031 23.0216 45.5309 23.3591 45.4278 23.7051C45.3376 24.008 45.3167 24.247 45.3208 24.4969C45.3233 24.6526 45.3364 24.7842 45.3581 24.9295L45.3697 25.0035C45.3938 25.1522 45.4235 25.3031 45.4802 25.5734L45.6662 26.4597C45.7607 26.918 45.8145 27.2013 45.8925 27.6427C46.4378 30.7327 46.5791 33.6628 46.1068 36.3795L46.084 36.5075C45.6975 38.6348 44.9429 40.4602 43.7749 41.9485L43.7108 42.0291L43.6703 41.9378C43.3887 41.3078 43.0679 40.671 42.7129 40.0306C42.0469 38.8292 41.2903 37.6946 40.6005 36.8436C40.2372 36.3953 39.8957 36.0285 39.5679 35.7513C39.2919 35.5179 39.0147 35.3314 38.666 35.1882C38.3181 35.0453 37.9391 34.963 37.5002 34.9864L37.438 34.9905C36.9207 35.0305 36.4199 35.2247 36.0068 35.5621L35.981 35.5836L35.964 35.5975C35.5321 35.9564 35.2484 36.4277 35.1115 36.935C35.0151 37.2923 34.9997 37.6163 35.0283 37.9396C35.0536 38.2257 35.1082 38.4737 35.1967 38.7791L35.2452 38.9385C35.3236 39.1848 35.5706 39.9538 35.6645 40.279L35.6717 40.3044C36.0042 41.4744 36.1713 42.5898 36.1314 43.8244L36.1273 43.9353C36.0613 45.4885 35.6586 47.1039 34.8309 48.8147L34.7789 48.9206L34.7942 48.8914C32.1294 54.0146 31.5782 60.1728 33.5829 64.8512L33.6595 65.0267L33.6757 65.0605C36.8061 71.6004 41.2544 74.9499 47.287 75.1788L47.488 75.1853L47.6998 75.1877C48.473 75.1909 49.2098 75.1541 49.9383 75.0685L50.098 75.0487L50.0693 75.0522C52.673 74.7711 55.2677 73.9933 57.4604 72.7314L57.5623 72.6722C60.1698 71.1453 62.1081 68.9872 63.0965 66.2303L63.1136 66.1812L63.0939 66.2313C64.1439 63.6098 64.7027 61.3558 64.7188 59.1172C64.7383 56.3925 63.9198 53.8621 62.1645 51.547L62.0865 51.445C61.4659 50.6446 61.0686 49.312 60.9245 47.5527C60.8203 46.2797 60.8488 44.965 60.9758 43.3319Z" fill="white"/>
<path d="M47.8353 24.4062C48.3151 24.4062 55.3277 35.639 53.8371 42.7488C53.0756 46.3812 52.8889 49.3562 53.9846 52.4412L54.0258 52.5555L55.0179 54.3227C54.7988 53.6972 54.67 52.9627 54.6313 52.1191C54.4408 47.964 58.1472 40.5657 58.5891 40.5657C59.0341 40.5657 57.0515 49.0319 60.1074 52.973C63.2032 56.982 62.4193 61.1911 60.7728 65.3017C59.1064 70.0961 53.9375 72.12 49.8005 72.5666C49.0264 72.6664 48.2721 72.6954 47.5384 72.6857C42.4687 72.547 38.7382 69.8473 35.9303 63.9811C34.1343 59.9213 34.7198 54.4515 37.0118 50.045C40.6186 42.7488 37.0118 37.8667 37.5774 37.5088C38.0184 36.9959 43.2841 44.1527 42.4174 48.437L42.3892 48.5659L42.7365 47.9505L42.863 47.6973C43.4606 46.5107 44.1639 45.2609 45.0975 44.2484C51.7715 37.0101 47.5384 24.4062 47.8353 24.4062Z" fill="#E6522C"/>
</svg>
