<svg width="96" height="96" viewBox="0 0 96 96" fill="none" xmlns="http://www.w3.org/2000/svg">
<rect width="96" height="96" fill="white"/>
<g clip-path="url(#clip0_6225_22)">
<path d="M72.2065 72.0654C63.139 66.828 54.4653 61.819 45.7927 56.8083C41.789 54.495 37.8092 52.139 33.7706 49.8884C32.631 49.2533 32.4768 48.7264 33.0156 47.5079C36.7548 39.0522 40.3929 30.5518 44.0693 22.0683C44.706 20.599 45.2061 19.0361 47.2937 19.0101C49.3823 18.9841 49.9012 20.4837 50.5524 21.9867C57.5185 38.0645 64.4944 54.1381 71.4803 70.2074C71.6795 70.6663 71.8459 71.1396 72.2065 72.0654Z" fill="#3F51B4"/>
<path d="M31.2672 51.5301C31.8012 50.2744 32.2295 50.0864 33.4572 50.8318C37.604 53.3497 41.8405 55.7196 46.3143 58.3029C38.3521 62.9079 30.6478 67.3637 22.8442 71.877" fill="#3F51B4"/>
<path d="M47.5002 92C38.8967 92.0001 30.4864 89.4489 23.3329 84.6691C16.1793 79.8892 10.6038 73.0955 7.31133 65.1469C4.01889 57.1984 3.1574 48.452 4.83582 40.0138C6.51424 31.5756 10.6572 23.8246 16.7407 17.741C22.8243 11.6574 30.5752 7.51439 39.0134 5.8359C47.4516 4.1574 56.198 5.01881 64.1466 8.31119C72.0952 11.6036 78.889 17.179 83.6688 24.3326C88.4487 31.4861 91 39.8963 91 48.4998C90.987 60.0327 86.3998 71.0897 78.2449 79.2447C70.0899 87.3997 59.0331 91.987 47.5002 92ZM47.5002 9.63507C39.8135 9.63504 32.2993 11.9144 25.908 16.1849C19.5166 20.4554 14.5352 26.5253 11.5936 33.6269C8.65193 40.7285 7.88224 48.5429 9.38181 56.082C10.8814 63.6211 14.5829 70.5462 20.0182 75.9816C25.4536 81.4169 32.3786 85.1185 39.9177 86.6182C47.4567 88.1178 55.2712 87.3482 62.3728 84.4066C69.4745 81.4651 75.5444 76.4837 79.8149 70.0924C84.0855 63.7011 86.3649 56.187 86.365 48.5002C86.3533 38.1962 82.2549 28.3173 74.9689 21.0313C67.6829 13.7452 57.8042 9.64676 47.5002 9.63507Z" fill="#3F51B4"/>
</g>
<defs>
<clipPath id="clip0_6225_22">
<rect width="87" height="87" fill="white" transform="translate(4 5)"/>
</clipPath>
</defs>
</svg>
