<svg width="96" height="96" viewBox="0 0 96 96" fill="none" xmlns="http://www.w3.org/2000/svg">
<rect width="96" height="96" fill="white"/>
<path d="M47.7508 13.0316C47.1147 13.0637 46.4915 13.2217 45.9176 13.4963L20.9034 25.4713C20.256 25.781 19.6871 26.2318 19.239 26.79C18.791 27.3483 18.4752 27.9996 18.3153 28.6958L12.1441 55.5945C12.0016 56.2142 11.9857 56.8561 12.0972 57.4821C12.2088 58.1081 12.4455 58.7055 12.7935 59.2389C12.8779 59.3693 12.9687 59.4955 13.0655 59.6171L30.3793 81.1855C30.8275 81.7436 31.3964 82.1942 32.0439 82.5038C32.6913 82.8134 33.4006 82.9742 34.1191 82.974L61.8847 82.9676C62.6029 82.9681 63.3121 82.8079 63.9595 82.4988C64.6069 82.1898 65.176 81.7398 65.6245 81.1823L82.9319 59.6107C83.3803 59.0523 83.6963 58.4007 83.8564 57.7043C84.0164 57.0079 84.0165 56.2845 83.8565 55.5881L77.6757 28.6894C77.5158 27.9932 77.2 27.3418 76.752 26.7836C76.3039 26.2254 75.735 25.7746 75.0876 25.4648L50.0702 13.4963C49.3484 13.1508 48.5509 12.991 47.7508 13.0316Z" fill="#326CE5"/>
<path d="M47.9988 22.1855C47.172 22.1856 46.5015 22.9318 46.5016 23.8523C46.5016 23.8664 46.5045 23.8799 46.5048 23.894C46.5036 24.019 46.4976 24.1697 46.5016 24.2786C46.5214 24.8095 46.6369 25.2158 46.7064 25.7049C46.8323 26.7518 46.9379 27.6196 46.8727 28.4262C46.8094 28.7304 46.5858 29.0086 46.3865 29.2019L46.3513 29.8366C45.4528 29.9111 44.5482 30.0477 43.6448 30.2532C39.7572 31.1376 36.4101 33.144 33.8617 35.8529C33.6964 35.7398 33.4071 35.5319 33.3211 35.4682C33.0538 35.5044 32.7836 35.587 32.4317 35.3817C31.7617 34.9298 31.1515 34.3061 30.413 33.5547C30.0747 33.1953 29.8297 32.853 29.4277 32.5066C29.3364 32.4279 29.1971 32.3215 29.095 32.2405C28.7807 31.9895 28.41 31.8585 28.0521 31.8463C27.5918 31.8305 27.1487 32.0108 26.8588 32.3751C26.3433 33.0229 26.5083 34.013 27.2267 34.5868C27.234 34.5926 27.2417 34.5971 27.2491 34.6028C27.3478 34.683 27.4687 34.7857 27.5594 34.8528C27.986 35.1684 28.3756 35.3299 28.8007 35.5804C29.6961 36.1345 30.4385 36.5939 31.0273 37.1478C31.2572 37.3934 31.2974 37.8261 31.328 38.0132L31.8079 38.4427C29.239 42.3161 28.0501 47.1005 28.7527 51.9754L28.1256 52.1581C27.9604 52.372 27.7269 52.7084 27.4826 52.8088C26.7122 53.0519 25.8452 53.1412 24.7985 53.2511C24.3071 53.2921 23.8831 53.2676 23.3621 53.3665C23.2474 53.3883 23.0877 53.43 22.9622 53.4595C22.9578 53.4604 22.9538 53.4617 22.9494 53.4627C22.9426 53.4643 22.9336 53.4676 22.927 53.4691C22.0445 53.6827 21.4776 54.4954 21.6601 55.2961C21.8427 56.097 22.7047 56.584 23.5924 56.3923C23.5988 56.3908 23.6081 56.3906 23.6148 56.3891C23.6248 56.3868 23.6337 56.3819 23.6436 56.3795C23.7674 56.3523 23.9225 56.322 24.0307 56.293C24.5429 56.1556 24.9139 55.9537 25.3744 55.7769C26.365 55.4209 27.1855 55.1235 27.9849 55.0076C28.3187 54.9814 28.6705 55.214 28.8455 55.3121L29.4981 55.2C30.9999 59.8651 34.1473 63.6357 38.1326 66.0018L37.8607 66.6556C37.9587 66.9095 38.0668 67.2531 37.9938 67.5038C37.7032 68.2588 37.2054 69.0558 36.6386 69.9443C36.3642 70.3547 36.0833 70.6733 35.8356 71.143C35.7764 71.2554 35.7009 71.4281 35.6437 71.5469C35.2589 72.3718 35.5411 73.3219 36.2803 73.6784C37.0241 74.0372 37.9474 73.6588 38.347 72.8322C38.3476 72.831 38.3496 72.8302 38.3502 72.829C38.3506 72.8281 38.3497 72.8267 38.3502 72.8258C38.4071 72.7086 38.4877 72.5546 38.5357 72.4444C38.7478 71.9575 38.8184 71.5402 38.9676 71.0693C39.3637 70.0723 39.5814 69.0262 40.1267 68.3744C40.2761 68.1959 40.5195 68.1273 40.7719 68.0596L41.111 67.4441C44.5854 68.7803 48.4744 69.1388 52.3593 68.2551C53.2455 68.0535 54.1011 67.7925 54.9282 67.4794C55.0235 67.6488 55.2006 67.9744 55.2481 68.0563C55.5046 68.14 55.7846 68.1831 56.0127 68.5211C56.4207 69.2195 56.6997 70.0457 57.0397 71.0437C57.1889 71.5146 57.2626 71.9318 57.4747 72.4187C57.5231 72.5297 57.6033 72.6859 57.6603 72.8034C58.059 73.6326 58.9852 74.0123 59.7302 73.6528C60.4692 73.296 60.7518 72.3461 60.3668 71.5213C60.3096 71.4025 60.2309 71.2298 60.1716 71.1174C59.924 70.6476 59.6431 70.3323 59.3686 69.9218C58.8018 69.0334 58.3316 68.2953 58.041 67.5403C57.9195 67.1509 58.0615 66.9087 58.1562 66.6556C58.0995 66.5905 57.9782 66.2228 57.9066 66.0498C62.0484 63.5997 65.1033 59.6884 66.538 55.1711C66.7317 55.2016 67.0684 55.2613 67.1778 55.2833C67.403 55.1345 67.61 54.9404 68.016 54.9724C68.8153 55.0882 69.6358 55.3857 70.6265 55.7417C71.087 55.9184 71.4579 56.1235 71.9701 56.2609C72.0784 56.2899 72.2335 56.317 72.3573 56.3442C72.3672 56.3467 72.376 56.3516 72.386 56.3539C72.3927 56.3554 72.402 56.3556 72.4084 56.3571C73.2963 56.5486 74.1584 56.0618 74.3407 55.2609C74.523 54.4601 73.9564 53.6472 73.0739 53.4338C72.9455 53.4046 72.7634 53.3549 72.6388 53.3313C72.1178 53.2324 71.6938 53.2568 71.2024 53.2159C70.1556 53.106 69.2886 53.0166 68.5183 52.7736C68.2041 52.6515 67.9807 52.277 67.872 52.1229L67.2674 51.9466C67.5809 49.6742 67.4963 47.3093 66.9539 44.9431C66.4063 42.5548 65.4387 40.3704 64.1482 38.4459C64.3033 38.3047 64.5962 38.0448 64.6793 37.9684C64.7035 37.6992 64.6827 37.417 64.9608 37.119C65.5496 36.565 66.292 36.1057 67.1874 35.5516C67.6124 35.301 68.0053 35.1396 68.4319 34.824C68.5283 34.7526 68.66 34.6396 68.7614 34.5579C69.4796 33.9839 69.6449 32.9939 69.1293 32.3463C68.6137 31.6987 67.6145 31.6377 66.8963 32.2117C66.794 32.2928 66.6553 32.3986 66.5636 32.4777C66.1616 32.8242 65.9133 33.1664 65.575 33.5258C64.8367 34.2773 64.2263 34.9041 63.5564 35.3561C63.266 35.5254 62.8408 35.4668 62.6478 35.4554L62.0783 35.8625C58.8312 32.451 54.4101 30.2699 49.6496 29.8462C49.6363 29.6463 49.6189 29.285 49.6144 29.1763C49.4195 28.9894 49.1841 28.8299 49.1249 28.4262C49.0598 27.6196 49.1686 26.7518 49.2945 25.7049C49.364 25.2158 49.4795 24.8095 49.4992 24.2786C49.5037 24.1579 49.4965 23.9828 49.4961 23.8523C49.496 22.9318 48.8257 22.1855 47.9988 22.1855ZM46.1241 33.8207L45.6795 41.6897L45.6475 41.7057C45.6176 42.4097 45.0394 42.9718 44.3294 42.9718C44.0386 42.9718 43.7701 42.8782 43.552 42.7186L43.5392 42.725L37.0993 38.1511C39.0785 36.2011 41.6102 34.7601 44.5278 34.0964C45.0607 33.9751 45.5934 33.8852 46.1241 33.8207ZM49.8768 33.8207C53.2831 34.2405 56.4332 35.7858 58.8472 38.1543L52.4489 42.6994L52.4265 42.6897C51.8586 43.1053 51.0584 43.0022 50.6158 42.4461C50.4344 42.2183 50.3393 41.9505 50.3278 41.6801L50.3214 41.6769L49.8768 33.8207ZM34.7639 41.0903L40.644 46.3598L40.6376 46.3918C41.1683 46.8541 41.2466 47.6563 40.8039 48.2124C40.6226 48.4402 40.3799 48.593 40.1193 48.6644L40.1129 48.69L32.5757 50.8696C32.1921 47.3551 33.0188 43.9387 34.7639 41.0903ZM61.1922 41.0935C62.0658 42.5123 62.7274 44.0969 63.1213 45.8149C63.5104 47.5122 63.6081 49.2065 63.4476 50.844L55.872 48.658L55.8656 48.6259C55.1872 48.4402 54.7703 47.7488 54.9282 47.0553C54.9929 46.7712 55.1434 46.5309 55.3473 46.3534L55.3441 46.3373L61.1922 41.0935ZM46.7928 46.7668H49.2017L50.6989 48.6419L50.1615 50.9818L47.9988 52.0235L45.8298 50.9786L45.2924 48.6387L46.7928 46.7668ZM54.5155 53.1838C54.6179 53.1786 54.7198 53.1879 54.8195 53.2063L54.8323 53.1902L62.6286 54.5108C61.4876 57.7226 59.3043 60.505 56.387 62.367L53.3606 55.0429L53.3702 55.0301C53.0922 54.3829 53.3704 53.6239 54.0101 53.3152C54.1738 53.2362 54.3449 53.1925 54.5155 53.1838ZM41.4214 53.2159C42.0163 53.2242 42.55 53.638 42.6882 54.2448C42.753 54.5288 42.7215 54.8103 42.6147 55.0589L42.637 55.0878L39.6426 62.3381C36.843 60.5382 34.6131 57.8431 33.4203 54.5365L41.1494 53.2223L41.1622 53.2383C41.2487 53.2224 41.3364 53.2147 41.4214 53.2159ZM47.9509 56.3923C48.1581 56.3847 48.3684 56.4273 48.5683 56.5237C48.8303 56.6502 49.0327 56.8492 49.1601 57.0879H49.1889L52.9991 63.9856C52.5046 64.1517 51.9963 64.2936 51.4763 64.4119C48.5623 65.0748 45.6576 64.874 43.0273 63.976L46.8279 57.0911H46.8343C47.0624 56.6639 47.4949 56.4091 47.9509 56.3923Z" fill="white" stroke="white" stroke-width="0.0265667"/>
</svg>
