<svg width="96" height="96" viewBox="0 0 96 96" fill="none" xmlns="http://www.w3.org/2000/svg">
<rect width="96" height="96" fill="#434C5F"/>
<mask id="mask0_6142_5260" style="mask-type:alpha" maskUnits="userSpaceOnUse" x="11" y="11" width="74" height="74">
<path d="M80.2371 42.554C78.588 41.4419 74.2565 40.9665 71.1063 41.817C70.9366 38.6724 69.318 36.0229 66.3592 33.7114L65.2628 32.9743L64.5318 34.0799C63.0959 36.2628 62.4933 39.1718 62.7065 41.817C62.8762 43.4459 63.4418 45.2777 64.5318 46.6079C60.433 48.9914 56.6541 48.4506 39.9197 48.4506H14.0894C14.0132 52.2384 14.6224 59.5241 19.2433 65.4534C19.7545 66.1076 20.3136 66.7422 20.9206 67.3528C24.6778 71.1253 30.356 73.8905 38.8472 73.8992C51.8004 73.9101 62.8979 66.8926 69.6487 49.9247C71.8699 49.9618 77.733 50.3238 80.6026 44.7652C80.6722 44.6715 81.3336 43.2911 81.3336 43.2911L80.2393 42.554H80.2371ZM30.9477 38.6462H23.6836V45.9275H30.9477V38.6462ZM40.3331 38.6462H33.0689V45.9275H40.3331V38.6462ZM49.7184 38.6462H42.4542V45.9275H49.7184V38.6462ZM59.1038 38.6462H51.8396V45.9275H59.1038V38.6462ZM21.5602 38.6462H14.2982V45.9275H21.5624V38.6462H21.5602ZM30.9456 29.4481H23.6814V36.7294H30.9456V29.4481ZM40.3309 29.4481H33.0667V36.7294H40.3309V29.4481ZM49.7162 29.4481H42.4521V36.7294H49.7162V29.4481ZM49.7162 20.25H42.4521V27.5313H49.7162V20.25Z" fill="#6C7E9D"/>
</mask>
<g mask="url(#mask0_6142_5260)">
<rect x="11" y="11" width="74" height="74" fill="white"/>
</g>
</svg>
