<svg width="96" height="96" viewBox="0 0 96 96" fill="none" xmlns="http://www.w3.org/2000/svg">
<rect width="96" height="96" fill="white"/>
<path d="M66.5197 39.0558C61.8915 18.6939 52.2326 13.2718 49.7817 9.43906C48.4496 7.35411 47.0913 4.18555 47.0913 4.18555C46.9585 5.99157 46.7231 7.13538 45.1776 8.50796C42.0828 11.2591 28.9306 21.9468 27.8259 45.0839C26.7956 66.6558 43.7228 79.9601 45.9725 81.3347C47.691 82.1775 49.7958 81.3508 50.8019 80.5782C58.9596 74.9916 70.1196 60.0959 66.5096 39.0558" fill="#10AA50"/>
<path d="M47.792 69.8447C47.3674 75.1865 47.0615 78.2949 45.981 81.3411C45.981 81.3411 46.6933 86.424 47.1883 91.8099H48.9531C49.3743 88.0166 50.0173 84.251 50.8788 80.5324C48.5929 79.4146 47.8785 74.5303 47.792 69.8447Z" fill="#B8C4C2"/>
<path d="M50.8767 80.5365C48.5667 79.4729 47.8986 74.4903 47.796 69.8448C48.3651 62.1859 48.5297 54.5023 48.289 46.8261C48.1682 42.7987 48.3493 9.51775 47.2949 4.64551C47.7215 5.59869 48.7518 7.83815 49.7821 9.43748C52.2431 13.2723 61.8939 18.6943 66.5181 39.0582C70.122 60.0442 59.0284 74.9137 50.8767 80.5365Z" fill="#12924F"/>
</svg>
