<svg width="96" height="96" viewBox="0 0 96 96" fill="none" xmlns="http://www.w3.org/2000/svg">
<rect width="96" height="96" fill="white"/>
<g clip-path="url(#clip0_6115_217)">
<path d="M75.6158 51C71.2579 56.4783 66.5514 62.7391 57.1384 62.7391C48.7304 62.7391 45.598 55.3401 45.3778 49.3294C47.2199 53.2158 50.8217 56.363 56.4411 56.2174C67.2486 55.8696 74.657 46.1304 74.657 37.2609C74.657 26.6522 66.7257 19 52.9548 19C43.106 19 30.9039 22.7391 22.8854 28.6522C22.7983 34.7391 26.1974 42.6522 27.4176 41.7826C34.3691 36.796 39.8814 33.586 45.2279 31.9765C37.3136 40.7817 18.3249 61.2269 16 64.8261C16.2615 68.1304 20.3579 77 22.3625 77C22.9726 77 23.4956 76.6522 24.1057 76.0435C29.8303 69.6262 34.497 63.8726 38.6479 58.327C39.2307 66.4548 43.2367 76.3913 54.4365 76.3913C64.4596 76.3913 74.3956 69.1739 78.9278 52.913C79.4507 50.913 77.0103 49.3478 75.6158 51ZM64.1981 37.8696C64.1981 43 59.143 45.5217 54.5236 45.5217C52.0545 45.5217 50.1577 44.8749 48.6576 44.0343C51.4177 39.8646 54.1499 35.5888 57.0853 31.0116C62.2613 31.8857 64.1981 34.7561 64.1981 37.8696Z" fill="#FF4438"/>
</g>
<defs>
<clipPath id="clip0_6115_217">
<rect width="63" height="58" fill="white" transform="translate(16 19)"/>
</clipPath>
</defs>
</svg>
