<svg width="96" height="96" viewBox="0 0 96 96" fill="none" xmlns="http://www.w3.org/2000/svg">
<rect width="96" height="96" fill="white"/>
<g clip-path="url(#clip0_6222_12)">
<path fill-rule="evenodd" clip-rule="evenodd" d="M47.8868 11C26.9364 11 10 27.9583 10 48.9381C10 65.7084 20.8517 79.904 35.9059 84.9283C37.7881 85.306 38.4775 84.112 38.4775 83.1076C38.4775 82.2281 38.4155 79.2134 38.4155 76.0722C27.8763 78.3338 25.6816 71.5497 25.6816 71.5497C23.9879 67.1529 21.4783 66.0229 21.4783 66.0229C18.0289 63.6988 21.7296 63.6988 21.7296 63.6988C25.556 63.9501 27.5638 67.593 27.5638 67.593C30.9504 73.3712 36.4077 71.7386 38.6031 70.7334C38.9164 68.2837 39.9207 66.5879 40.9871 65.6459C32.5813 64.7664 23.7374 61.5004 23.7374 46.9278C23.7374 42.7822 25.2419 39.3906 27.6258 36.7528C27.2497 35.8108 25.9321 31.9158 28.0027 26.7026C28.0027 26.7026 31.2017 25.6975 38.4147 30.5969C41.5028 29.7665 44.6876 29.344 47.8868 29.3404C51.0858 29.3404 54.3468 29.7806 57.3581 30.5969C64.5719 25.6975 67.7709 26.7026 67.7709 26.7026C69.8415 31.9158 68.5231 35.8108 68.147 36.7528C70.5937 39.3906 72.0362 42.7822 72.0362 46.9278C72.0362 61.5004 63.1922 64.7032 54.7237 65.6459C56.1041 66.8392 57.2953 69.1 57.2953 72.6805C57.2953 77.7681 57.2332 81.8512 57.2332 83.1068C57.2332 84.112 57.9234 85.306 59.8048 84.9291C74.859 79.9033 85.7107 65.7084 85.7107 48.9381C85.7728 27.9583 68.7744 11 47.8868 11Z" fill="#24292F"/>
</g>
<defs>
<clipPath id="clip0_6222_12">
<rect width="76" height="74" fill="white" transform="translate(10 11)"/>
</clipPath>
</defs>
</svg>
