<svg width="96" height="96" viewBox="0 0 96 96" fill="none" xmlns="http://www.w3.org/2000/svg">
<rect width="96" height="96" fill="white"/>
<path d="M41.9064 58.713L35.8262 48.0128L41.9064 37.3125H54.0251L60.1053 48.0128L54.0251 58.713H41.9064Z" fill="#E83030" stroke="#141A1F" stroke-width="3.05981"/>
<path d="M41.9064 84.6016L35.8262 73.9014L41.9064 63.2012H54.0251L60.1053 73.9014L54.0251 84.6016H41.9064Z" fill="#6B91C7" stroke="#141A1F" stroke-width="3.05981"/>
<path d="M41.9064 32.8224L35.8262 22.1221L41.9064 11.4219H54.0251L60.1053 22.1221L54.0251 32.8224H41.9064Z" fill="#F9C31F" stroke="#141A1F" stroke-width="3.05981"/>
<path d="M64.3683 71.6564L58.2881 60.9561L64.3683 50.2559H76.4869L82.5671 60.9561L76.4869 71.6564H64.3683Z" fill="#795AA5" stroke="#141A1F" stroke-width="3.05981"/>
<path d="M64.3683 45.7677L58.2881 35.0675L64.3683 24.3672H76.4869L82.5671 35.0675L76.4869 45.7677H64.3683Z" fill="#F17423" stroke="#141A1F" stroke-width="3.05981"/>
<path d="M19.4191 71.6564L13.3389 60.9561L19.4191 50.2559H31.5378L37.618 60.9561L31.5378 71.6564H19.4191Z" fill="#97C639" stroke="#141A1F" stroke-width="3.05981"/>
<path d="M19.4191 45.7677L13.3389 35.0675L19.4191 24.3672H31.5378L37.618 35.0675L31.5378 45.7677H19.4191Z" fill="#C9DB70" stroke="#141A1F" stroke-width="3.05981"/>
</svg>
