<svg width="96" height="96" viewBox="0 0 96 96" fill="none" xmlns="http://www.w3.org/2000/svg">
<rect width="96" height="96" fill="white"/>
<g clip-path="url(#clip0_6246_17)">
<path d="M13.686 47.9992C13.686 61.5817 21.5796 73.3195 33.0259 78.8819L16.657 34.0342C14.753 38.3018 13.686 43.0245 13.686 47.9992Z" fill="#464342"/>
<path d="M71.1668 46.2672C71.1668 42.0263 69.6435 39.0894 68.3369 36.8035C66.5975 33.9769 64.967 31.5832 64.967 28.7567C64.967 25.6023 67.3595 22.6661 70.7294 22.6661C70.8815 22.6661 71.0258 22.685 71.174 22.6935C65.0689 17.1004 56.935 13.6855 48.0013 13.6855C36.0131 13.6855 25.4659 19.8362 19.3301 29.1524C20.1352 29.1765 20.8939 29.1935 21.5384 29.1935C25.1277 29.1935 30.6837 28.758 30.6837 28.758C32.5335 28.6489 32.7516 31.3658 30.9037 31.5846C30.9037 31.5846 29.0447 31.8033 26.9762 31.9117L39.4724 69.0802L46.9821 46.5584L41.6357 31.9104C39.7878 31.802 38.0372 31.5832 38.0372 31.5832C36.1881 31.4749 36.4048 28.6476 38.254 28.7567C38.254 28.7567 43.921 29.1922 47.2929 29.1922C50.8815 29.1922 56.4381 28.7567 56.4381 28.7567C58.2893 28.6476 58.5067 31.3645 56.6582 31.5832C56.6582 31.5832 54.7953 31.802 52.7307 31.9104L65.1316 68.7975L68.5544 57.36C70.0379 52.6137 71.1668 49.2048 71.1668 46.2672Z" fill="#464342"/>
<path d="M48.6034 51.001L38.3076 80.918C41.3817 81.8216 44.6328 82.3159 48.0014 82.3159C51.9975 82.3159 55.8297 81.6251 59.3967 80.3708C59.3047 80.2239 59.2211 80.0678 59.1525 79.8981L48.6034 51.001Z" fill="#464342"/>
<path d="M78.1119 31.5361C78.2595 32.6292 78.343 33.8025 78.343 35.0646C78.343 38.5467 77.6927 42.4611 75.7338 47.3555L65.252 77.6604C75.4537 71.7114 82.3156 60.6592 82.3156 48C82.3163 42.0341 80.7923 36.424 78.1119 31.5361Z" fill="#464342"/>
<path d="M48.0013 8C25.9452 8 8 25.9434 8 47.999C8 70.0572 25.9452 88 48.0013 88C70.0568 88 88.0046 70.0572 88.0046 47.999C88.0039 25.9434 70.0568 8 48.0013 8ZM48.0013 86.1665C26.9566 86.1665 9.83415 69.0445 9.83415 47.999C9.83415 26.9548 26.9559 9.8341 48.0013 9.8341C69.0454 9.8341 86.1665 26.9548 86.1665 47.999C86.1665 69.0445 69.0454 86.1665 48.0013 86.1665Z" fill="#464342"/>
</g>
<defs>
<clipPath id="clip0_6246_17">
<rect width="80" height="80" fill="white" transform="translate(8 8)"/>
</clipPath>
</defs>
</svg>
