<svg width="96" height="96" viewBox="0 0 96 96" fill="none" xmlns="http://www.w3.org/2000/svg">
<rect width="96" height="96" fill="white"/>
<g clip-path="url(#clip0)">
<path d="M24 38C24 38 32 28 48 28C64 28 72 38 72 38C72 38 64 48 48 48C32 48 24 38 24 38Z" fill="#76B900"/>
<ellipse cx="48" cy="38" rx="8" ry="10" fill="#1A1A1A"/>
<path d="M24 48L20 68H28L32 48H24Z" fill="#76B900"/>
<path d="M36 48L32 68H40L44 48H36Z" fill="#76B900"/>
<path d="M52 48L48 68H56L60 48H52Z" fill="#76B900"/>
<path d="M64 48L60 68H68L72 48H64Z" fill="#76B900"/>
</g>
<defs>
<clipPath id="clip0">
<rect width="96" height="96" fill="white"/>
</clipPath>
</defs>
</svg>
