<svg width="96" height="96" viewBox="0 0 96 96" fill="none" xmlns="http://www.w3.org/2000/svg">
<rect width="96" height="96" fill="white"/>
<g clip-path="url(#clip0_6105_421)">
<path d="M36.1138 63.0957C36.1138 63.0957 35.6308 64.55 34.9019 65.2766C34.6893 65.5138 34.4275 65.7019 34.1348 65.8277C33.842 65.9535 33.5254 66.0139 33.207 66.0049C32.0112 66.3259 30.7957 66.5686 29.5684 66.7314C29.5684 66.7314 31.2662 66.9744 33.207 67.2168C33.933 67.2168 33.933 67.2168 34.4183 67.4597C35.6308 67.4597 36.1138 66.7314 36.1138 66.7314V63.0957ZM58.4188 63.0957C58.4188 63.0957 58.9041 64.55 59.6307 65.2766C59.8439 65.5137 60.1061 65.7017 60.3992 65.8274C60.6922 65.9532 61.0091 66.0137 61.3279 66.0049C62.5227 66.326 63.7372 66.5687 64.9637 66.7314C64.9637 66.7314 63.2681 66.9744 61.0855 67.2168C60.359 67.2168 60.359 67.2168 59.8731 67.4597C58.4188 67.4597 58.1758 66.7314 58.1758 66.7314L58.4188 63.0957Z" fill="#E9654B"/>
<path d="M73.6923 39.0948C73.6923 53.5551 61.9695 65.2779 47.5092 65.2779C33.0484 65.2779 21.3262 53.5551 21.3262 39.0948C21.3262 24.6363 33.0484 12.9141 47.5092 12.9141C61.9695 12.9141 73.6923 24.6363 73.6923 39.0948Z" fill="#B6CFEA"/>
<path d="M72.7233 39.0952C72.7233 53.0211 61.4351 64.3087 47.5092 64.3087C33.5856 64.3087 22.2974 53.0211 22.2974 39.0952C22.2974 25.1716 33.5856 13.8828 47.5092 13.8828C61.4351 13.8828 72.7227 25.171 72.7227 39.0946L72.7233 39.0952Z" fill="#E6F5F8"/>
<path d="M68.1155 39.5798C68.1155 50.9609 58.8907 60.1863 47.509 60.1863C36.1289 60.1863 26.9019 50.9609 26.9019 39.5792C26.9019 28.1997 36.1295 18.9727 47.509 18.9727C58.8907 18.9727 68.1155 28.2009 68.1155 39.5798Z" fill="#D0E8F0"/>
<path d="M35.3876 49.2773C35.3876 49.2773 37.0848 76.6723 37.0848 77.1582C37.0848 77.3989 37.3278 77.8842 36.1136 78.3701C34.9016 78.8538 31.0229 79.8244 31.0229 79.8244H36.8418C39.5086 79.8244 39.5086 77.6418 39.5086 77.1582C39.5086 76.6723 40.2352 66.2487 40.2352 66.2487C40.2352 66.2487 40.4776 78.6131 40.4776 79.0961C40.4776 79.582 40.2352 80.308 38.5397 80.794C37.3278 81.0369 33.6897 81.7635 33.6897 81.7635H39.2662C42.6613 81.7635 42.6613 79.582 42.6613 79.582L43.3873 68.6725C43.3873 68.6725 43.6303 79.582 43.6303 80.794C43.6303 81.7635 42.9037 82.4918 40.2352 82.9748C38.5397 83.4607 36.3565 83.9461 36.3565 83.9461H42.6613C45.8112 83.7037 46.2971 81.52 46.2971 81.52L51.63 54.368L35.3876 49.2773Z" fill="#EE794B"/>
<path d="M59.6303 49.277C59.6303 49.277 57.9348 76.672 57.9348 77.1579C57.9348 77.3986 57.6919 77.8839 58.9043 78.3698C60.1157 78.8534 63.9944 79.8241 63.9944 79.8241H58.1755C55.5087 79.8241 55.5087 77.6415 55.5087 77.1579C55.5087 76.672 54.7827 66.2484 54.7827 66.2484C54.7827 66.2484 54.5397 78.6128 54.5397 79.0958C54.5397 79.5817 54.7827 80.3077 56.4799 80.7936L61.3276 81.7632H55.7522C52.3589 81.7632 52.3589 79.5817 52.3589 79.5817L51.6306 68.6722C51.6306 68.6722 51.3876 79.5817 51.3876 80.7936C51.3876 81.7632 52.1165 82.4915 54.7833 82.9745C56.4805 83.4604 58.6614 83.9457 58.6614 83.9457H52.3589C49.2062 83.7034 48.7203 81.5196 48.7203 81.5196L43.3878 54.3682L59.6303 49.277ZM59.8727 35.9437C59.8727 42.7321 54.2968 48.0651 47.7513 48.0651C41.2064 48.0651 35.6299 42.4892 35.6299 35.9437C35.6299 29.3988 41.2064 23.8223 47.7513 23.8223C54.2968 23.8223 59.8727 29.1558 59.8727 35.9437Z" fill="#EE794B"/>
<mask id="mask0_6105_421" style="mask-type:luminance" maskUnits="userSpaceOnUse" x="34" y="35" width="27" height="30">
<path d="M34.9531 35.3828H60.0469V64.4688H34.9531V35.3828Z" fill="white"/>
</mask>
<g mask="url(#mask0_6105_421)">
<mask id="mask1_6105_421" style="mask-type:luminance" maskUnits="userSpaceOnUse" x="35" y="35" width="25" height="34">
<path d="M59.8729 35.459L58.4186 68.6728H36.5996L35.3877 35.459" fill="white"/>
</mask>
<g mask="url(#mask1_6105_421)">
<path d="M69.3274 42.4896C69.3274 54.4062 59.668 64.0662 47.7514 64.0662C35.8352 64.0662 26.1753 54.4062 26.1753 42.4901C26.1753 30.5734 35.8352 20.9141 47.7514 20.9141C59.668 20.9141 69.3274 30.5729 69.3274 42.4896Z" fill="#EE794B"/>
</g>
</g>
<mask id="mask2_6105_421" style="mask-type:luminance" maskUnits="userSpaceOnUse" x="11" y="12" width="73" height="73">
<path d="M11 12H84V85H11V12Z" fill="black" fill-opacity="0.22"/>
</mask>
<g mask="url(#mask2_6105_421)">
<mask id="mask3_6105_421" style="mask-type:luminance" maskUnits="userSpaceOnUse" x="11" y="12" width="73" height="73">
<path d="M11 12H84V85H11V12Z" fill="white"/>
</mask>
<g mask="url(#mask3_6105_421)">
<path d="M59.1469 49.277C59.1469 49.277 60.6012 36.4273 58.661 31.5797C55.0252 23.094 46.5396 23.8223 46.5396 23.8223C46.5396 23.8223 51.3872 25.7608 51.6302 33.0345C51.8731 38.1251 51.6302 45.6413 51.6302 45.6413L59.1469 49.277Z" fill="#E34E3B"/>
</g>
</g>
<mask id="mask4_6105_421" style="mask-type:luminance" maskUnits="userSpaceOnUse" x="11" y="12" width="73" height="73">
<path d="M11 12H84V85H11V12Z" fill="black" fill-opacity="0.502"/>
</mask>
<g mask="url(#mask4_6105_421)">
<mask id="mask5_6105_421" style="mask-type:luminance" maskUnits="userSpaceOnUse" x="11" y="12" width="73" height="73">
<path d="M11 12H84V85H11V12Z" fill="white"/>
</mask>
<g mask="url(#mask5_6105_421)">
<path d="M44.3566 29.3981C44.3565 29.6209 44.3125 29.8414 44.2271 30.0471C44.1418 30.2529 44.0168 30.4398 43.8592 30.5972C43.7016 30.7546 43.5146 30.8795 43.3087 30.9646C43.1029 31.0497 42.8823 31.0935 42.6596 31.0934C42.4369 31.0933 42.2163 31.0493 42.0106 30.964C41.8049 30.8786 41.6179 30.7536 41.4605 30.596C41.3031 30.4384 41.1783 30.2514 41.0931 30.0456C41.008 29.8397 40.9642 29.6192 40.9644 29.3964C40.9646 28.9466 41.1435 28.5153 41.4617 28.1973C41.78 27.8794 42.2115 27.7009 42.6613 27.7012C43.1112 27.7014 43.5425 27.8803 43.8604 28.1986C44.1783 28.5168 44.3568 28.9483 44.3566 29.3981Z" fill="#FBDFC3"/>
</g>
</g>
<path d="M51.8732 54.1256C51.8732 58.2473 49.933 60.9163 47.5091 60.9163C45.0853 60.9163 43.1445 57.7637 43.1445 53.6426C43.1445 53.6426 45.0853 57.5207 47.7515 57.5207C50.4183 57.5207 51.8732 54.1256 51.8732 54.1256Z" fill="#010101"/>
<path d="M51.8734 54.1254C51.8734 56.7945 49.9332 58.2471 47.5093 58.2471C45.0855 58.2471 43.3877 56.3086 43.3877 53.8848C43.3877 53.8848 45.3279 56.3086 47.9947 56.3086C50.6615 56.3086 51.8734 54.1254 51.8734 54.1254Z" fill="white"/>
<path d="M63.5085 42.7316C63.5085 46.8817 60.1447 50.2454 55.9946 50.2454C51.8439 50.2454 48.4779 46.8817 48.4779 42.7316C48.4779 38.5808 51.8439 35.2148 55.9946 35.2148C60.1447 35.2148 63.5085 38.5808 63.5085 42.7316ZM46.5394 42.7316C46.5394 46.8817 43.1734 50.2454 39.0227 50.2454C34.8725 50.2454 31.5088 46.8817 31.5088 42.7316C31.5088 38.5808 34.8725 35.2148 39.0232 35.2148C43.1734 35.2148 46.5394 38.5808 46.5394 42.7316Z" fill="#E9654B"/>
<path d="M61.8135 42.733C61.8135 45.9455 59.2072 48.5519 55.9946 48.5519C52.782 48.5519 50.1751 45.9455 50.1751 42.733C50.1751 39.5181 52.7814 36.9141 55.9946 36.9141C59.2066 36.9141 61.8135 39.5181 61.8135 42.733ZM44.3562 42.733C44.3562 45.9455 41.7522 48.5519 38.5396 48.5519C35.3248 48.5519 32.7207 45.9455 32.7207 42.733C32.7206 41.9688 32.871 41.212 33.1633 40.506C33.4557 39.7999 33.8843 39.1584 34.4247 38.618C34.965 38.0777 35.6066 37.6491 36.3126 37.3567C37.0187 37.0643 37.7754 36.9139 38.5396 36.9141C41.7522 36.9141 44.3562 39.5181 44.3562 42.733Z" fill="white"/>
<path d="M40.2352 42.0047C40.2353 42.2275 40.1915 42.4482 40.1063 42.6541C40.0212 42.86 39.8963 43.0471 39.7388 43.2047C39.5813 43.3623 39.3944 43.4874 39.1886 43.5728C38.9827 43.6581 38.7621 43.7021 38.5393 43.7022C38.3165 43.7023 38.0959 43.6586 37.89 43.5734C37.6841 43.4883 37.497 43.3634 37.3393 43.2059C37.1817 43.0484 37.0566 42.8614 36.9713 42.6556C36.8859 42.4498 36.8419 42.2292 36.8418 42.0064C36.8415 41.5564 37.02 41.1247 37.3379 40.8063C37.6559 40.4879 38.0873 40.3089 38.5373 40.3086C38.9873 40.3083 39.419 40.4868 39.7374 40.8047C40.0558 41.1227 40.2349 41.5547 40.2352 42.0047ZM57.6919 42.0047C57.696 42.2302 57.6552 42.4542 57.5718 42.6637C57.4884 42.8732 57.3641 43.064 57.2062 43.225C57.0482 43.3859 56.8598 43.5138 56.6518 43.601C56.4439 43.6883 56.2207 43.7333 55.9952 43.7333C55.7697 43.7334 55.5464 43.6885 55.3385 43.6013C55.1305 43.5141 54.942 43.3863 54.784 43.2254C54.626 43.0645 54.5016 42.8737 54.4182 42.6643C54.3347 42.4548 54.2938 42.2307 54.2979 42.0053C54.3059 41.5606 54.4881 41.1368 54.8054 40.8251C55.1227 40.5134 55.5496 40.3387 55.9943 40.3386C56.4391 40.3384 56.8661 40.5128 57.1836 40.8243C57.501 41.1358 57.6835 41.56 57.6919 42.0047Z" fill="#010101"/>
<path d="M20.8426 45.6407C20.6808 45.6507 20.5188 45.6262 20.3672 45.5688C20.2156 45.5115 20.078 45.4225 19.9634 45.3079C19.8488 45.1933 19.7599 45.0557 19.7025 44.9041C19.6451 44.7525 19.6206 44.5905 19.6307 44.4287V34.7317C19.6205 34.5699 19.6449 34.4078 19.7021 34.2561C19.7593 34.1044 19.8481 33.9666 19.9626 33.8517C20.0774 33.7373 20.2152 33.6485 20.3669 33.5913C20.5186 33.534 20.6807 33.5097 20.8426 33.5198C21.0043 33.5098 21.1664 33.5343 21.3179 33.5917C21.4695 33.649 21.6071 33.7379 21.7217 33.8525C21.8363 33.9671 21.9253 34.1048 21.9826 34.2564C22.04 34.4079 22.0645 34.57 22.0545 34.7317V44.4293C22.0744 44.7544 21.9518 45.0755 21.7203 45.3076C21.6058 45.4222 21.4683 45.5111 21.3169 45.5686C21.1655 45.6261 21.0037 45.6509 20.842 45.6412L20.8426 45.6407ZM73.6923 45.6407C73.5306 45.6504 73.3686 45.6257 73.2172 45.5681C73.0658 45.5104 72.9283 45.4213 72.814 45.3065C72.6995 45.192 72.6106 45.0547 72.5531 44.9034C72.4956 44.7521 72.4708 44.5903 72.4804 44.4287V34.7317C72.4707 34.5698 72.4954 34.4076 72.553 34.2559C72.6106 34.1042 72.6998 33.9664 72.8146 33.8517C72.929 33.7373 73.0664 33.6486 73.2177 33.5913C73.369 33.5341 73.5308 33.5097 73.6923 33.5198C73.8538 33.5097 74.0155 33.5341 74.1669 33.5913C74.3182 33.6486 74.4556 33.7373 74.57 33.8517C74.8038 34.0839 74.9236 34.4049 74.9042 34.7317V44.4293C74.9143 44.5911 74.8897 44.7531 74.8321 44.9046C74.7744 45.0561 74.6851 45.1935 74.57 45.3076C74.4556 45.4223 74.3182 45.5114 74.1667 45.5689C74.0153 45.6264 73.8534 45.6511 73.6917 45.6412L73.6923 45.6407Z" fill="#B6CFEA"/>
<path d="M40.4785 19.7021C40.4785 20.0236 40.3509 20.3318 40.1236 20.5591C39.8963 20.7864 39.5881 20.9141 39.2666 20.9141C38.9452 20.9141 38.637 20.7864 38.4097 20.5591C38.1824 20.3318 38.0547 20.0236 38.0547 19.7021C38.0547 19.3807 38.1824 19.0725 38.4097 18.8452C38.637 18.6179 38.9452 18.4902 39.2666 18.4902C39.5881 18.4902 39.8963 18.6179 40.1236 18.8452C40.3509 19.0725 40.4785 19.3807 40.4785 19.7021ZM30.5403 52.4301C30.4084 52.4468 30.2745 52.4336 30.1483 52.3917C30.0222 52.3497 29.9071 52.28 29.8114 52.1877C26.9023 48.552 25.4474 43.945 25.4474 39.338C25.4344 35.5079 26.4385 31.7429 28.3571 28.4279C30.302 25.2726 32.9585 22.6163 36.1139 20.6717C36.3165 20.5808 36.5423 20.5554 36.76 20.5988C36.9778 20.6423 37.1765 20.7524 37.3287 20.9141C37.4187 21.1164 37.4436 21.3417 37.3999 21.5588C37.3563 21.7759 37.2463 21.9741 37.0852 22.126C34.0778 23.8251 31.5738 26.2902 29.8278 29.2707C28.0818 32.2512 27.1561 35.6408 27.1446 39.0951C27.1379 43.407 28.5906 47.5944 31.2663 50.9758C31.5092 51.2188 31.5092 51.9453 31.0233 52.1877C30.781 52.4307 30.781 52.4301 30.5403 52.4301Z" fill="white"/>
<mask id="mask6_6105_421" style="mask-type:luminance" maskUnits="userSpaceOnUse" x="11" y="12" width="73" height="73">
<path d="M11 12H84V85H11V12Z" fill="black" fill-opacity="0.251"/>
</mask>
<g mask="url(#mask6_6105_421)">
<mask id="mask7_6105_421" style="mask-type:luminance" maskUnits="userSpaceOnUse" x="11" y="12" width="73" height="73">
<path d="M11 12H84V85H11V12Z" fill="white"/>
</mask>
<g mask="url(#mask7_6105_421)">
<path d="M58.4186 63.8221V61.8848C55.0253 63.8227 51.3873 65.7629 47.0255 65.7629C42.1756 65.7629 39.0235 63.582 35.873 61.8848L36.1137 63.8227C36.1137 63.8227 39.7523 67.7037 47.2662 67.7037C54.297 67.4607 58.4186 63.8221 58.4186 63.8221Z" fill="#E9654B"/>
</g>
</g>
</g>
<defs>
<clipPath id="clip0_6105_421">
<rect width="73" height="73" fill="white" transform="translate(11 12)"/>
</clipPath>
</defs>
</svg>
