<?xml version="1.0" encoding="UTF-8"?>
<svg xmlns="http://www.w3.org/2000/svg" xmlns:xlink="http://www.w3.org/1999/xlink" width="96" height="96" viewBox="0 0 96 96">
<defs>
<linearGradient id="linear-pattern-0" gradientUnits="userSpaceOnUse" x1="244.82254" y1="-272.523468" x2="1115.340454" y2="-272.523468" gradientTransform="matrix(0.0395796, 0.0908061, -0.0908061, 0.0395796, -3.283664, -2.91931)">
<stop offset="0" stop-color="rgb(0%, 45.098039%, 63.137255%)" stop-opacity="1"/>
<stop offset="1" stop-color="rgb(0%, 20.784314%, 33.333333%)" stop-opacity="1"/>
</linearGradient>
</defs>
<path fill-rule="nonzero" fill="rgb(100%, 100%, 100%)" fill-opacity="1" d="M 96 48 C 96 74.507812 74.507812 96 48 96 C 21.492188 96 0 74.507812 0 48 C 0 21.492188 21.492188 0 48 0 C 74.507812 0 96 21.492188 96 48 Z M 96 48 "/>
<path fill-rule="nonzero" fill="url(#linear-pattern-0)" d="M 49.128906 4.941406 C 42.949219 4.832031 36.820312 6.054688 31.152344 8.527344 C 9.324219 18.039062 -0.65625 43.449219 8.855469 65.277344 C 16.90625 83.621094 36.53125 94.003906 56.226562 90.335938 C 57.066406 87.660156 57.753906 84.726562 57.753906 81.527344 C 57.753906 81.070312 57.742188 80.617188 57.714844 80.148438 C 57.714844 80.148438 59.257812 77.523438 60.46875 74.097656 C 61.972656 69.867188 61.175781 65.207031 58.574219 61.519531 C 58.421875 61.316406 58.273438 61.089844 58.109375 60.859375 C 42.785156 60.859375 35.207031 46.964844 33.285156 38.515625 C 32.488281 35.042969 31.84375 34.695312 29.675781 34.695312 C 25.664062 34.695312 22.765625 33.03125 22.765625 33.03125 C 19.082031 34.71875 17.433594 34.03125 17.925781 32.269531 C 16.320312 32.09375 16.355469 30.273438 17.332031 28.597656 C 18.554688 26.5 21.058594 25.074219 24.050781 25.074219 L 25.65625 25.074219 C 28.964844 25.074219 29.648438 23.34375 33.058594 23.710938 C 33.589844 23.761719 34.082031 23.851562 34.535156 23.964844 C 35.484375 22.878906 36.558594 22.421875 37.859375 22.511719 C 38.0625 22.535156 38.1875 22.710938 38.148438 22.902344 L 37.832031 24.367188 C 37.71875 24.910156 37.871094 25.480469 38.261719 25.84375 C 41.015625 28.421875 42.59375 32.816406 44.363281 36.785156 C 47.230469 42.632812 54.152344 50.753906 65.257812 40.335938 C 73.0625 33.007812 77.78125 26.898438 85.535156 26.296875 C 77.953125 13.320312 64.15625 5.226562 49.128906 4.941406 Z M 30.820312 26.152344 C 29.683594 26.152344 28.550781 27.066406 28.9375 27.230469 C 29.023438 27.265625 29.167969 27.289062 29.335938 27.308594 C 29.457031 28.035156 30.066406 28.597656 30.828125 28.597656 C 31.589844 28.597656 32.191406 28.035156 32.308594 27.308594 C 32.476562 27.289062 32.621094 27.265625 32.707031 27.230469 C 33.09375 27.066406 31.960938 26.152344 30.820312 26.152344 Z M 71.097656 67.605469 C 70.175781 67.628906 69.347656 68.214844 69.070312 69.109375 L 69.070312 69.121094 C 67.695312 73.542969 65.015625 79.253906 65.015625 79.253906 C 65.015625 79.253906 62.351562 83.972656 60.84375 89.257812 C 62.464844 88.789062 64.054688 88.226562 65.609375 87.574219 C 68.644531 86.246094 71.519531 84.570312 74.175781 82.582031 C 73.761719 81.757812 73.296875 80.917969 72.742188 80.046875 C 72.742188 80.046875 71.855469 76.121094 70.164062 71.839844 C 70.429688 71.105469 70.667969 70.386719 70.882812 69.691406 L 70.898438 69.640625 C 70.949219 69.539062 71.0625 69.5 71.1875 69.5 L 71.199219 69.5 C 72.085938 69.640625 73.019531 69.777344 74.105469 69.90625 C 74.433594 69.929688 74.773438 69.957031 75.117188 69.992188 C 75.53125 70.03125 75.9375 70.070312 76.355469 70.09375 C 76.453125 74.070312 78.179688 77.867188 78.613281 78.773438 C 81.796875 75.640625 84.472656 72.035156 86.542969 68.082031 C 83.472656 68.433594 79.71875 68.550781 75.300781 68.113281 C 74.945312 68.074219 74.59375 68.035156 74.238281 68.011719 C 73.265625 67.898438 72.355469 67.769531 71.496094 67.632812 C 71.363281 67.609375 71.230469 67.601562 71.097656 67.605469 Z M 71.097656 67.605469 "/>
</svg>
